<svg width="508" height="78" viewBox="0 0 508 78" fill="none" xmlns="http://www.w3.org/2000/svg">
<g filter="url(#filter0_d_141_5419)">
<rect x="4" width="500" height="70" rx="10" fill="#121212" shape-rendering="crispEdges"/>
<path d="M108.362 16.4905H114.687L100.868 31.9335L117.125 52.9481H104.396L94.4263 40.2029L83.0187 52.9481H76.6896L91.4702 36.43L75.875 16.4905H88.9271L97.9389 28.1401L108.362 16.4905ZM106.142 49.2462H109.647L87.0226 19.9979H83.2615L106.142 49.2462Z" fill="white"/>
<path d="M148.144 29.188C147.632 28.6333 147.088 28.2173 146.512 27.94C145.957 27.6413 145.307 27.492 144.56 27.492C143.643 27.492 142.864 27.7053 142.224 28.132C141.605 28.5373 141.104 29.1133 140.72 29.86C140.336 30.5853 140.059 31.4387 139.888 32.42C139.717 33.4013 139.632 34.4573 139.632 35.588C139.632 36.7187 139.707 37.7747 139.856 38.756C140.027 39.7373 140.304 40.6013 140.688 41.348C141.093 42.0947 141.627 42.6813 142.288 43.108C142.971 43.5347 143.824 43.748 144.848 43.748C145.339 43.748 145.808 43.7053 146.256 43.62C146.704 43.5347 147.109 43.4493 147.472 43.364C147.856 43.2573 148.165 43.1613 148.4 43.076C148.656 42.9907 148.816 42.9373 148.88 42.916L149.776 45.604L149.36 45.764C149.083 45.8707 148.688 45.9987 148.176 46.148C147.685 46.276 147.088 46.3933 146.384 46.5C145.701 46.628 144.944 46.692 144.112 46.692C141.253 46.692 139.099 45.7853 137.648 43.972C136.219 42.1373 135.504 39.46 135.504 35.94C135.504 34.2547 135.696 32.7187 136.08 31.332C136.464 29.924 137.04 28.7187 137.808 27.716C138.597 26.7133 139.579 25.9347 140.752 25.38C141.947 24.8253 143.344 24.548 144.944 24.548C146.224 24.548 147.269 24.7827 148.08 25.252C148.912 25.7213 149.584 26.2547 150.096 26.852L148.144 29.188ZM157.729 30.18C160.182 30.18 161.963 30.9053 163.073 32.356C164.182 33.8067 164.737 35.8013 164.737 38.34C164.737 39.5347 164.587 40.6547 164.289 41.7C163.99 42.724 163.531 43.62 162.913 44.388C162.315 45.1347 161.558 45.732 160.641 46.18C159.723 46.6067 158.657 46.82 157.441 46.82C156.225 46.82 155.169 46.6387 154.273 46.276C153.398 45.892 152.673 45.348 152.097 44.644C151.521 43.94 151.094 43.0867 150.817 42.084C150.561 41.0813 150.433 39.9507 150.433 38.692C150.433 37.476 150.582 36.356 150.881 35.332C151.179 34.2867 151.627 33.3907 152.225 32.644C152.843 31.876 153.611 31.2787 154.529 30.852C155.446 30.404 156.513 30.18 157.729 30.18ZM157.409 32.868C156.79 32.868 156.278 33.0067 155.873 33.284C155.489 33.5613 155.179 33.956 154.945 34.468C154.731 34.9587 154.582 35.5453 154.497 36.228C154.411 36.8893 154.369 37.604 154.369 38.372C154.369 39.1613 154.411 39.908 154.497 40.612C154.603 41.316 154.785 41.9347 155.041 42.468C155.297 42.98 155.638 43.3853 156.065 43.684C156.513 43.9827 157.078 44.132 157.76 44.132C158.379 44.132 158.881 43.9933 159.265 43.716C159.67 43.4387 159.979 43.0547 160.193 42.564C160.427 42.052 160.587 41.4653 160.673 40.804C160.758 40.1427 160.801 39.428 160.801 38.66C160.801 37.8707 160.747 37.124 160.641 36.42C160.555 35.716 160.385 35.0973 160.129 34.564C159.873 34.0307 159.521 33.6147 159.073 33.316C158.646 33.0173 158.091 32.868 157.409 32.868ZM177.844 46.5V36.164C177.844 35.268 177.684 34.5533 177.364 34.02C177.044 33.4653 176.5 33.188 175.732 33.188C175.241 33.188 174.761 33.316 174.292 33.572C173.844 33.8067 173.438 34.1587 173.076 34.628C172.713 35.0973 172.414 35.6733 172.18 36.356C171.966 37.0173 171.86 37.764 171.86 38.596V46.5H168.212V38.436C168.212 37.156 168.126 36.0893 167.956 35.236C167.785 34.3613 167.604 33.6573 167.412 33.124C167.177 32.5053 166.921 32.004 166.644 31.62L169.524 30.468C169.737 30.7027 169.95 30.9907 170.164 31.332C170.334 31.6307 170.505 32.004 170.676 32.452C170.846 32.8787 170.985 33.3693 171.092 33.924C171.646 32.644 172.446 31.7267 173.492 31.172C174.537 30.596 175.636 30.308 176.788 30.308C178.43 30.308 179.614 30.8093 180.34 31.812C181.086 32.7933 181.46 34.1267 181.46 35.812V46.5H177.844ZM183.726 30.564H186.606L187.246 26.82L190.254 26.148V30.564H194.19L193.742 33.156H190.254V42.628C190.254 43.1827 190.404 43.5453 190.702 43.716C191.001 43.8653 191.332 43.94 191.694 43.94C191.993 43.94 192.292 43.9187 192.59 43.876C192.889 43.8333 193.156 43.78 193.39 43.716C193.668 43.652 193.934 43.5773 194.19 43.492L194.798 45.892L194.51 45.988C194.318 46.0733 194.03 46.1693 193.646 46.276C193.284 46.3613 192.846 46.436 192.334 46.5C191.844 46.5853 191.3 46.628 190.702 46.628C190.105 46.628 189.55 46.564 189.038 46.436C188.548 46.308 188.121 46.1053 187.758 45.828C187.396 45.5293 187.108 45.156 186.894 44.708C186.702 44.26 186.606 43.7053 186.606 43.044V33.156H183.726V30.564ZM200.409 46.628C199.278 46.628 198.414 46.2973 197.817 45.636C197.219 44.9533 196.921 44.0787 196.921 43.012V30.564H200.569V42.692C200.569 43.1827 200.643 43.5133 200.793 43.684C200.942 43.8547 201.166 43.94 201.465 43.94C201.55 43.94 201.635 43.94 201.721 43.94C201.827 43.94 201.923 43.9293 202.009 43.908C202.094 43.908 202.19 43.8973 202.297 43.876L202.681 46.18C202.531 46.2653 202.339 46.34 202.105 46.404C201.913 46.468 201.667 46.5213 201.369 46.564C201.091 46.6067 200.771 46.628 200.409 46.628ZM198.809 23.46C199.491 23.46 200.014 23.6627 200.377 24.068C200.739 24.4733 200.921 24.996 200.921 25.636C200.921 26.276 200.729 26.8093 200.345 27.236C199.982 27.6627 199.438 27.876 198.713 27.876C198.03 27.876 197.497 27.6733 197.113 27.268C196.75 26.8413 196.569 26.3293 196.569 25.732C196.569 25.0707 196.75 24.5267 197.113 24.1C197.497 23.6733 198.062 23.46 198.809 23.46ZM215.156 46.5V36.164C215.156 35.268 214.996 34.5533 214.676 34.02C214.356 33.4653 213.812 33.188 213.044 33.188C212.554 33.188 212.074 33.316 211.604 33.572C211.156 33.8067 210.751 34.1587 210.388 34.628C210.026 35.0973 209.727 35.6733 209.492 36.356C209.279 37.0173 209.172 37.764 209.172 38.596V46.5H205.524V38.436C205.524 37.156 205.439 36.0893 205.268 35.236C205.098 34.3613 204.916 33.6573 204.724 33.124C204.49 32.5053 204.234 32.004 203.956 31.62L206.836 30.468C207.05 30.7027 207.263 30.9907 207.476 31.332C207.647 31.6307 207.818 32.004 207.988 32.452C208.159 32.8787 208.298 33.3693 208.404 33.924C208.959 32.644 209.759 31.7267 210.804 31.172C211.85 30.596 212.948 30.308 214.1 30.308C215.743 30.308 216.927 30.8093 217.652 31.812C218.399 32.7933 218.772 34.1267 218.772 35.812V46.5H215.156ZM232.271 30.564H235.919V38.788C235.919 40.068 235.993 41.1453 236.143 42.02C236.313 42.8733 236.495 43.5667 236.687 44.1C236.921 44.74 237.177 45.2413 237.455 45.604L234.607 46.756C234.351 46.5213 234.116 46.2227 233.903 45.86C233.732 45.5613 233.551 45.1987 233.359 44.772C233.188 44.324 233.071 43.8013 233.007 43.204C232.431 44.4627 231.62 45.3587 230.575 45.892C229.529 46.4253 228.441 46.692 227.311 46.692C225.625 46.692 224.42 46.2013 223.695 45.22C222.991 44.2387 222.639 42.8947 222.639 41.188V30.564H226.287V41.124C226.287 42.02 226.447 42.724 226.767 43.236C227.087 43.748 227.631 44.004 228.399 44.004C228.868 44.004 229.327 43.876 229.775 43.62C230.244 43.3427 230.66 42.9587 231.023 42.468C231.407 41.9773 231.705 41.3907 231.919 40.708C232.153 40.004 232.271 39.2253 232.271 38.372V30.564ZM253.225 38.788C253.225 40.068 253.3 41.1453 253.449 42.02C253.62 42.8733 253.801 43.5667 253.993 44.1C254.228 44.74 254.484 45.2413 254.761 45.604L251.913 46.756C251.636 46.4787 251.38 46.148 251.145 45.764C250.953 45.4227 250.772 45.0173 250.601 44.548C250.431 44.0573 250.324 43.4813 250.281 42.82C249.919 44.1 249.332 45.0707 248.521 45.732C247.732 46.372 246.655 46.692 245.289 46.692C244.287 46.692 243.412 46.5107 242.665 46.148C241.94 45.764 241.332 45.2307 240.841 44.548C240.351 43.844 239.988 43.0013 239.753 42.02C239.519 41.0387 239.401 39.9507 239.401 38.756C239.401 37.54 239.583 36.42 239.945 35.396C240.329 34.3507 240.852 33.4547 241.513 32.708C242.196 31.9613 243.007 31.3747 243.945 30.948C244.884 30.5213 245.919 30.308 247.049 30.308C247.689 30.308 248.351 30.3613 249.033 30.468C249.737 30.5533 250.388 30.6493 250.985 30.756C251.583 30.8627 252.084 30.9693 252.489 31.076C252.916 31.1613 253.161 31.2147 253.225 31.236V38.788ZM245.897 44.132C246.431 44.132 246.921 43.9507 247.369 43.588C247.817 43.2253 248.201 42.756 248.521 42.18C248.863 41.5827 249.119 40.9107 249.289 40.164C249.481 39.396 249.577 38.6173 249.577 37.828V33.22C249.364 33.156 249.044 33.0813 248.617 32.996C248.191 32.9107 247.807 32.868 247.465 32.868C246.655 32.868 245.983 33.0067 245.449 33.284C244.937 33.5613 244.521 33.9453 244.201 34.436C243.881 34.9267 243.657 35.5133 243.529 36.196C243.401 36.8787 243.337 37.6253 243.337 38.436C243.337 39.1827 243.359 39.8973 243.401 40.58C243.444 41.2627 243.551 41.8707 243.721 42.404C243.913 42.9373 244.18 43.364 244.521 43.684C244.863 43.9827 245.321 44.132 245.897 44.132ZM264.029 33.892C263.645 33.892 263.261 33.988 262.877 34.18C262.493 34.372 262.151 34.6387 261.853 34.98C261.554 35.3 261.309 35.6947 261.117 36.164C260.925 36.6333 260.829 37.156 260.829 37.732V46.5H257.181V38.436C257.181 37.156 257.095 36.0893 256.924 35.236C256.754 34.3613 256.573 33.6573 256.381 33.124C256.146 32.5053 255.89 32.004 255.613 31.62L258.493 30.468C258.685 30.7027 258.887 30.9907 259.101 31.332C259.271 31.6307 259.442 31.9827 259.613 32.388C259.783 32.7933 259.922 33.2733 260.029 33.828C260.455 32.5907 261.074 31.7053 261.885 31.172C262.695 30.6173 263.613 30.34 264.637 30.34C265.127 30.34 265.586 30.404 266.013 30.532C266.439 30.6387 266.642 30.692 266.621 30.692L265.597 34.244C265.618 34.244 265.49 34.1907 265.213 34.084C264.957 33.956 264.562 33.892 264.029 33.892ZM285.501 34.308C285.181 33.9453 284.851 33.636 284.509 33.38C284.189 33.124 283.752 32.996 283.197 32.996C282.877 32.996 282.515 33.0493 282.109 33.156C281.725 33.2413 281.363 33.476 281.021 33.86C280.68 34.2227 280.392 34.7667 280.157 35.492C279.944 36.2173 279.837 37.1987 279.837 38.436C279.837 39.6947 279.944 40.6973 280.157 41.444C280.392 42.1693 280.68 42.7347 281.021 43.14C281.384 43.5453 281.768 43.812 282.173 43.94C282.579 44.0467 282.973 44.1 283.357 44.1C283.656 44.1 283.965 44.0787 284.285 44.036C284.605 43.972 284.915 43.908 285.213 43.844C285.512 43.7587 285.768 43.684 285.981 43.62C286.216 43.556 286.387 43.5027 286.493 43.46L287.389 45.764C287.325 45.7853 287.176 45.8493 286.941 45.956C286.728 46.0627 286.429 46.1693 286.045 46.276C285.661 46.3827 285.203 46.4787 284.669 46.564C284.136 46.6707 283.539 46.724 282.877 46.724C281.64 46.724 280.584 46.5427 279.709 46.18C278.835 45.796 278.109 45.2627 277.533 44.58C276.979 43.8973 276.563 43.076 276.285 42.116C276.029 41.156 275.901 40.0893 275.901 38.916C275.901 37.508 276.083 36.26 276.445 35.172C276.829 34.084 277.352 33.1773 278.013 32.452C278.675 31.7053 279.453 31.14 280.349 30.756C281.245 30.372 282.205 30.18 283.229 30.18C284.232 30.18 285.075 30.372 285.757 30.756C286.461 31.14 287.059 31.6733 287.549 32.356L285.501 34.308ZM296.01 30.18C298.463 30.18 300.244 30.9053 301.354 32.356C302.463 33.8067 303.018 35.8013 303.018 38.34C303.018 39.5347 302.868 40.6547 302.57 41.7C302.271 42.724 301.812 43.62 301.194 44.388C300.596 45.1347 299.839 45.732 298.922 46.18C298.004 46.6067 296.938 46.82 295.722 46.82C294.506 46.82 293.45 46.6387 292.554 46.276C291.679 45.892 290.954 45.348 290.378 44.644C289.802 43.94 289.375 43.0867 289.098 42.084C288.842 41.0813 288.714 39.9507 288.714 38.692C288.714 37.476 288.863 36.356 289.162 35.332C289.46 34.2867 289.908 33.3907 290.506 32.644C291.124 31.876 291.892 31.2787 292.81 30.852C293.727 30.404 294.794 30.18 296.01 30.18ZM295.69 32.868C295.071 32.868 294.559 33.0067 294.154 33.284C293.77 33.5613 293.46 33.956 293.226 34.468C293.012 34.9587 292.863 35.5453 292.778 36.228C292.692 36.8893 292.65 37.604 292.65 38.372C292.65 39.1613 292.692 39.908 292.778 40.612C292.884 41.316 293.066 41.9347 293.322 42.468C293.578 42.98 293.919 43.3853 294.346 43.684C294.794 43.9827 295.359 44.132 296.042 44.132C296.66 44.132 297.162 43.9933 297.546 43.716C297.951 43.4387 298.26 43.0547 298.474 42.564C298.708 42.052 298.868 41.4653 298.954 40.804C299.039 40.1427 299.082 39.428 299.082 38.66C299.082 37.8707 299.028 37.124 298.922 36.42C298.836 35.716 298.666 35.0973 298.41 34.564C298.154 34.0307 297.802 33.6147 297.354 33.316C296.927 33.0173 296.372 32.868 295.69 32.868ZM316.125 46.5V36.164C316.125 35.268 315.965 34.5533 315.645 34.02C315.325 33.4653 314.781 33.188 314.013 33.188C313.522 33.188 313.042 33.316 312.573 33.572C312.125 33.8067 311.72 34.1587 311.357 34.628C310.994 35.0973 310.696 35.6733 310.461 36.356C310.248 37.0173 310.141 37.764 310.141 38.596V46.5H306.493V38.436C306.493 37.156 306.408 36.0893 306.237 35.236C306.066 34.3613 305.885 33.6573 305.693 33.124C305.458 32.5053 305.202 32.004 304.925 31.62L307.805 30.468C308.018 30.7027 308.232 30.9907 308.445 31.332C308.616 31.6307 308.786 32.004 308.957 32.452C309.128 32.8787 309.266 33.3693 309.373 33.924C309.928 32.644 310.728 31.7267 311.773 31.172C312.818 30.596 313.917 30.308 315.069 30.308C316.712 30.308 317.896 30.8093 318.621 31.812C319.368 32.7933 319.741 34.1267 319.741 35.812V46.5H316.125ZM353.424 24.836L352.944 27.716H347.568V46.5H343.792V27.716H338.32V24.836H353.424ZM374.131 30.564L374.195 30.82C374.216 31.012 374.248 31.2573 374.291 31.556C374.333 31.8547 374.365 32.2067 374.387 32.612C374.429 33.0173 374.451 33.4227 374.451 33.828C374.451 36.196 374.312 38.2013 374.035 39.844C373.779 41.4867 373.341 42.82 372.723 43.844C372.125 44.8467 371.325 45.5827 370.323 46.052C369.32 46.5 368.083 46.724 366.611 46.724C364.541 46.724 363.123 45.8707 362.355 44.164C361.971 45.0387 361.437 45.6893 360.755 46.116C360.093 46.5213 359.112 46.724 357.811 46.724C356.147 46.724 354.952 46.244 354.227 45.284C353.501 44.324 353.139 42.9907 353.139 41.284V30.564H356.787V40.996C356.787 41.892 356.947 42.6387 357.267 43.236C357.587 43.812 358.131 44.1 358.899 44.1C359.88 44.1 360.637 43.62 361.171 42.66C361.704 41.7 361.971 40.1107 361.971 37.892V30.564H365.587C365.565 32.164 365.555 33.6467 365.555 35.012C365.555 35.6093 365.544 36.2067 365.523 36.804C365.523 37.4013 365.523 37.9667 365.523 38.5C365.523 39.0333 365.523 39.524 365.523 39.972C365.523 40.3987 365.523 40.74 365.523 40.996C365.523 41.892 365.693 42.6387 366.035 43.236C366.376 43.812 366.931 44.1 367.699 44.1C368.445 44.1 369.021 43.812 369.427 43.236C369.853 42.66 370.163 41.9133 370.355 40.996C370.547 40.0573 370.664 39.0013 370.707 37.828C370.749 36.6333 370.771 35.428 370.771 34.212C370.771 33.7213 370.749 33.2627 370.707 32.836C370.685 32.388 370.643 31.9933 370.579 31.652C370.536 31.3107 370.504 31.044 370.483 30.852L370.419 30.564H374.131ZM381.346 46.628C380.216 46.628 379.352 46.2973 378.754 45.636C378.157 44.9533 377.858 44.0787 377.858 43.012V30.564H381.506V42.692C381.506 43.1827 381.581 43.5133 381.73 43.684C381.88 43.8547 382.104 43.94 382.402 43.94C382.488 43.94 382.573 43.94 382.658 43.94C382.765 43.94 382.861 43.9293 382.946 43.908C383.032 43.908 383.128 43.8973 383.234 43.876L383.618 46.18C383.469 46.2653 383.277 46.34 383.042 46.404C382.85 46.468 382.605 46.5213 382.306 46.564C382.029 46.6067 381.709 46.628 381.346 46.628ZM379.746 23.46C380.429 23.46 380.952 23.6627 381.314 24.068C381.677 24.4733 381.858 24.996 381.858 25.636C381.858 26.276 381.666 26.8093 381.282 27.236C380.92 27.6627 380.376 27.876 379.65 27.876C378.968 27.876 378.434 27.6733 378.05 27.268C377.688 26.8413 377.506 26.3293 377.506 25.732C377.506 25.0707 377.688 24.5267 378.05 24.1C378.434 23.6733 379 23.46 379.746 23.46ZM384.289 30.564H387.169L387.809 26.82L390.817 26.148V30.564H394.753L394.305 33.156H390.817V42.628C390.817 43.1827 390.966 43.5453 391.265 43.716C391.563 43.8653 391.894 43.94 392.257 43.94C392.555 43.94 392.854 43.9187 393.153 43.876C393.451 43.8333 393.718 43.78 393.953 43.716C394.23 43.652 394.497 43.5773 394.753 43.492L395.361 45.892L395.073 45.988C394.881 46.0733 394.593 46.1693 394.209 46.276C393.846 46.3613 393.409 46.436 392.897 46.5C392.406 46.5853 391.862 46.628 391.265 46.628C390.667 46.628 390.113 46.564 389.601 46.436C389.11 46.308 388.683 46.1053 388.321 45.828C387.958 45.5293 387.67 45.156 387.457 44.708C387.265 44.26 387.169 43.7053 387.169 43.044V33.156H384.289V30.564ZM395.851 30.564H398.731L399.371 26.82L402.379 26.148V30.564H406.315L405.867 33.156H402.379V42.628C402.379 43.1827 402.529 43.5453 402.827 43.716C403.126 43.8653 403.457 43.94 403.819 43.94C404.118 43.94 404.417 43.9187 404.715 43.876C405.014 43.8333 405.281 43.78 405.515 43.716C405.793 43.652 406.059 43.5773 406.315 43.492L406.923 45.892L406.635 45.988C406.443 46.0733 406.155 46.1693 405.771 46.276C405.409 46.3613 404.971 46.436 404.459 46.5C403.969 46.5853 403.425 46.628 402.827 46.628C402.23 46.628 401.675 46.564 401.163 46.436C400.673 46.308 400.246 46.1053 399.883 45.828C399.521 45.5293 399.233 45.156 399.019 44.708C398.827 44.26 398.731 43.7053 398.731 43.044V33.156H395.851V30.564ZM407.745 38.916C407.745 37.4867 407.937 36.228 408.321 35.14C408.726 34.052 409.27 33.1453 409.953 32.42C410.657 31.6733 411.478 31.1187 412.417 30.756C413.356 30.372 414.369 30.18 415.457 30.18C416.417 30.18 417.228 30.2973 417.889 30.532C418.572 30.7667 419.126 31.0867 419.553 31.492C419.98 31.8973 420.289 32.3773 420.481 32.932C420.694 33.4867 420.801 34.084 420.801 34.724C420.801 35.492 420.588 36.228 420.161 36.932C419.734 37.6147 419.116 38.2227 418.305 38.756C417.516 39.268 416.556 39.684 415.425 40.004C414.294 40.3027 413.025 40.4627 411.617 40.484C411.681 40.9747 411.777 41.444 411.905 41.892C412.054 42.3187 412.257 42.7027 412.513 43.044C412.79 43.364 413.142 43.62 413.569 43.812C413.996 44.004 414.529 44.1 415.169 44.1C415.638 44.1 416.14 44.0467 416.673 43.94C417.206 43.8333 417.697 43.7053 418.145 43.556C418.678 43.3853 419.201 43.1933 419.713 42.98L420.673 45.252C420.118 45.5293 419.521 45.7747 418.881 45.988C418.326 46.18 417.686 46.3507 416.961 46.5C416.236 46.6493 415.468 46.724 414.657 46.724C413.42 46.724 412.364 46.5427 411.489 46.18C410.614 45.796 409.9 45.2627 409.345 44.58C408.79 43.8973 408.385 43.076 408.129 42.116C407.873 41.156 407.745 40.0893 407.745 38.916ZM415.169 32.676C414.465 32.676 413.878 32.8467 413.409 33.188C412.961 33.508 412.598 33.9347 412.321 34.468C412.044 34.98 411.841 35.5667 411.713 36.228C411.606 36.868 411.542 37.5187 411.521 38.18C412.545 38.1373 413.409 38.0093 414.113 37.796C414.838 37.5613 415.425 37.284 415.873 36.964C416.321 36.6227 416.641 36.26 416.833 35.876C417.046 35.492 417.153 35.108 417.153 34.724C417.153 34.1053 416.972 33.6147 416.609 33.252C416.246 32.868 415.766 32.676 415.169 32.676ZM430.966 33.892C430.582 33.892 430.198 33.988 429.814 34.18C429.43 34.372 429.089 34.6387 428.79 34.98C428.491 35.3 428.246 35.6947 428.054 36.164C427.862 36.6333 427.766 37.156 427.766 37.732V46.5H424.118V38.436C424.118 37.156 424.033 36.0893 423.862 35.236C423.691 34.3613 423.51 33.6573 423.318 33.124C423.083 32.5053 422.827 32.004 422.55 31.62L425.43 30.468C425.622 30.7027 425.825 30.9907 426.038 31.332C426.209 31.6307 426.379 31.9827 426.55 32.388C426.721 32.7933 426.859 33.2733 426.966 33.828C427.393 32.5907 428.011 31.7053 428.822 31.172C429.633 30.6173 430.55 30.34 431.574 30.34C432.065 30.34 432.523 30.404 432.95 30.532C433.377 30.6387 433.579 30.692 433.558 30.692L432.534 34.244C432.555 34.244 432.427 34.1907 432.15 34.084C431.894 33.956 431.499 33.892 430.966 33.892Z" fill="white"/>
</g>
<defs>
<filter id="filter0_d_141_5419" x="0" y="0" width="508" height="78" filterUnits="userSpaceOnUse" color-interpolation-filters="sRGB">
<feFlood flood-opacity="0" result="BackgroundImageFix"/>
<feColorMatrix in="SourceAlpha" type="matrix" values="0 0 0 0 0 0 0 0 0 0 0 0 0 0 0 0 0 0 127 0" result="hardAlpha"/>
<feOffset dy="4"/>
<feGaussianBlur stdDeviation="2"/>
<feComposite in2="hardAlpha" operator="out"/>
<feColorMatrix type="matrix" values="0 0 0 0 0 0 0 0 0 0 0 0 0 0 0 0 0 0 0.25 0"/>
<feBlend mode="normal" in2="BackgroundImageFix" result="effect1_dropShadow_141_5419"/>
<feBlend mode="normal" in="SourceGraphic" in2="effect1_dropShadow_141_5419" result="shape"/>
</filter>
</defs>
</svg>
