<svg width="508" height="78" viewBox="0 0 508 78" fill="none" xmlns="http://www.w3.org/2000/svg">
<g filter="url(#filter0_d_141_5409)">
<rect x="4" width="500" height="70" rx="10" fill="white" shape-rendering="crispEdges"/>
<path fill-rule="evenodd" clip-rule="evenodd" d="M120.7 35.4546C120.7 34.0364 120.573 32.6727 120.336 31.3636H101.5V39.1H112.264C111.8 41.6 110.391 43.7182 108.273 45.1364V50.1546H114.736C118.518 46.6727 120.7 41.5455 120.7 35.4546Z" fill="#4285F4"/>
<path fill-rule="evenodd" clip-rule="evenodd" d="M101.5 54.9997C106.9 54.9997 111.427 53.2088 114.736 50.1543L108.273 45.1361C106.482 46.3361 104.191 47.0452 101.5 47.0452C96.2908 47.0452 91.8817 43.527 90.309 38.7997H83.6272V43.9816C86.9181 50.5179 93.6817 54.9997 101.5 54.9997Z" fill="#34A853"/>
<path fill-rule="evenodd" clip-rule="evenodd" d="M90.3091 38.8001C89.9091 37.6001 89.6818 36.3183 89.6818 35.0001C89.6818 33.6819 89.9091 32.4001 90.3091 31.2001V26.0183H83.6273C82.2727 28.7183 81.5 31.7728 81.5 35.0001C81.5 38.2274 82.2727 41.2819 83.6273 43.9819L90.3091 38.8001Z" fill="#FBBC05"/>
<path fill-rule="evenodd" clip-rule="evenodd" d="M101.5 22.9545C104.436 22.9545 107.073 23.9636 109.145 25.9455L114.882 20.2091C111.418 16.9818 106.891 15 101.5 15C93.6817 15 86.9181 19.4818 83.6272 26.0182L90.309 31.2C91.8817 26.4727 96.2908 22.9545 101.5 22.9545Z" fill="#EA4335"/>
<path d="M151.019 29.188C150.507 28.6333 149.963 28.2173 149.387 27.94C148.832 27.6413 148.182 27.492 147.435 27.492C146.518 27.492 145.739 27.7053 145.099 28.132C144.48 28.5373 143.979 29.1133 143.595 29.86C143.211 30.5853 142.934 31.4387 142.763 32.42C142.592 33.4013 142.507 34.4573 142.507 35.588C142.507 36.7187 142.582 37.7747 142.731 38.756C142.902 39.7373 143.179 40.6013 143.563 41.348C143.968 42.0947 144.502 42.6813 145.163 43.108C145.846 43.5347 146.699 43.748 147.723 43.748C148.214 43.748 148.683 43.7053 149.131 43.62C149.579 43.5347 149.984 43.4493 150.347 43.364C150.731 43.2573 151.04 43.1613 151.275 43.076C151.531 42.9907 151.691 42.9373 151.755 42.916L152.651 45.604L152.235 45.764C151.958 45.8707 151.563 45.9987 151.051 46.148C150.56 46.276 149.963 46.3933 149.259 46.5C148.576 46.628 147.819 46.692 146.987 46.692C144.128 46.692 141.974 45.7853 140.523 43.972C139.094 42.1373 138.379 39.46 138.379 35.94C138.379 34.2547 138.571 32.7187 138.955 31.332C139.339 29.924 139.915 28.7187 140.683 27.716C141.472 26.7133 142.454 25.9347 143.627 25.38C144.822 24.8253 146.219 24.548 147.819 24.548C149.099 24.548 150.144 24.7827 150.955 25.252C151.787 25.7213 152.459 26.2547 152.971 26.852L151.019 29.188ZM160.604 30.18C163.057 30.18 164.838 30.9053 165.948 32.356C167.057 33.8067 167.612 35.8013 167.612 38.34C167.612 39.5347 167.462 40.6547 167.164 41.7C166.865 42.724 166.406 43.62 165.788 44.388C165.19 45.1347 164.433 45.732 163.516 46.18C162.598 46.6067 161.532 46.82 160.316 46.82C159.1 46.82 158.044 46.6387 157.148 46.276C156.273 45.892 155.548 45.348 154.972 44.644C154.396 43.94 153.969 43.0867 153.692 42.084C153.436 41.0813 153.308 39.9507 153.308 38.692C153.308 37.476 153.457 36.356 153.756 35.332C154.054 34.2867 154.502 33.3907 155.1 32.644C155.718 31.876 156.486 31.2787 157.404 30.852C158.321 30.404 159.388 30.18 160.604 30.18ZM160.284 32.868C159.665 32.868 159.153 33.0067 158.748 33.284C158.364 33.5613 158.054 33.956 157.82 34.468C157.606 34.9587 157.457 35.5453 157.372 36.228C157.286 36.8893 157.244 37.604 157.244 38.372C157.244 39.1613 157.286 39.908 157.372 40.612C157.478 41.316 157.66 41.9347 157.916 42.468C158.172 42.98 158.513 43.3853 158.94 43.684C159.388 43.9827 159.953 44.132 160.635 44.132C161.254 44.132 161.756 43.9933 162.14 43.716C162.545 43.4387 162.854 43.0547 163.068 42.564C163.302 42.052 163.462 41.4653 163.548 40.804C163.633 40.1427 163.676 39.428 163.676 38.66C163.676 37.8707 163.622 37.124 163.516 36.42C163.43 35.716 163.26 35.0973 163.004 34.564C162.748 34.0307 162.396 33.6147 161.948 33.316C161.521 33.0173 160.966 32.868 160.284 32.868ZM180.719 46.5V36.164C180.719 35.268 180.559 34.5533 180.239 34.02C179.919 33.4653 179.375 33.188 178.607 33.188C178.116 33.188 177.636 33.316 177.167 33.572C176.719 33.8067 176.313 34.1587 175.951 34.628C175.588 35.0973 175.289 35.6733 175.055 36.356C174.841 37.0173 174.735 37.764 174.735 38.596V46.5H171.087V38.436C171.087 37.156 171.001 36.0893 170.831 35.236C170.66 34.3613 170.479 33.6573 170.287 33.124C170.052 32.5053 169.796 32.004 169.519 31.62L172.399 30.468C172.612 30.7027 172.825 30.9907 173.039 31.332C173.209 31.6307 173.38 32.004 173.551 32.452C173.721 32.8787 173.86 33.3693 173.967 33.924C174.521 32.644 175.321 31.7267 176.367 31.172C177.412 30.596 178.511 30.308 179.663 30.308C181.305 30.308 182.489 30.8093 183.215 31.812C183.961 32.7933 184.335 34.1267 184.335 35.812V46.5H180.719ZM186.601 30.564H189.481L190.121 26.82L193.129 26.148V30.564H197.065L196.617 33.156H193.129V42.628C193.129 43.1827 193.279 43.5453 193.577 43.716C193.876 43.8653 194.207 43.94 194.569 43.94C194.868 43.94 195.167 43.9187 195.465 43.876C195.764 43.8333 196.031 43.78 196.265 43.716C196.543 43.652 196.809 43.5773 197.065 43.492L197.673 45.892L197.385 45.988C197.193 46.0733 196.905 46.1693 196.521 46.276C196.159 46.3613 195.721 46.436 195.209 46.5C194.719 46.5853 194.175 46.628 193.577 46.628C192.98 46.628 192.425 46.564 191.913 46.436C191.423 46.308 190.996 46.1053 190.633 45.828C190.271 45.5293 189.983 45.156 189.769 44.708C189.577 44.26 189.481 43.7053 189.481 43.044V33.156H186.601V30.564ZM203.284 46.628C202.153 46.628 201.289 46.2973 200.692 45.636C200.094 44.9533 199.796 44.0787 199.796 43.012V30.564H203.444V42.692C203.444 43.1827 203.518 43.5133 203.668 43.684C203.817 43.8547 204.041 43.94 204.34 43.94C204.425 43.94 204.51 43.94 204.596 43.94C204.702 43.94 204.798 43.9293 204.884 43.908C204.969 43.908 205.065 43.8973 205.172 43.876L205.556 46.18C205.406 46.2653 205.214 46.34 204.98 46.404C204.788 46.468 204.542 46.5213 204.244 46.564C203.966 46.6067 203.646 46.628 203.284 46.628ZM201.684 23.46C202.366 23.46 202.889 23.6627 203.252 24.068C203.614 24.4733 203.796 24.996 203.796 25.636C203.796 26.276 203.604 26.8093 203.22 27.236C202.857 27.6627 202.313 27.876 201.588 27.876C200.905 27.876 200.372 27.6733 199.988 27.268C199.625 26.8413 199.444 26.3293 199.444 25.732C199.444 25.0707 199.625 24.5267 199.988 24.1C200.372 23.6733 200.937 23.46 201.684 23.46ZM218.031 46.5V36.164C218.031 35.268 217.871 34.5533 217.551 34.02C217.231 33.4653 216.687 33.188 215.919 33.188C215.429 33.188 214.949 33.316 214.479 33.572C214.031 33.8067 213.626 34.1587 213.263 34.628C212.901 35.0973 212.602 35.6733 212.367 36.356C212.154 37.0173 212.047 37.764 212.047 38.596V46.5H208.399V38.436C208.399 37.156 208.314 36.0893 208.143 35.236C207.973 34.3613 207.791 33.6573 207.599 33.124C207.365 32.5053 207.109 32.004 206.831 31.62L209.711 30.468C209.925 30.7027 210.138 30.9907 210.351 31.332C210.522 31.6307 210.693 32.004 210.863 32.452C211.034 32.8787 211.173 33.3693 211.279 33.924C211.834 32.644 212.634 31.7267 213.679 31.172C214.725 30.596 215.823 30.308 216.975 30.308C218.618 30.308 219.802 30.8093 220.527 31.812C221.274 32.7933 221.647 34.1267 221.647 35.812V46.5H218.031ZM235.146 30.564H238.794V38.788C238.794 40.068 238.868 41.1453 239.018 42.02C239.188 42.8733 239.37 43.5667 239.562 44.1C239.796 44.74 240.052 45.2413 240.33 45.604L237.482 46.756C237.226 46.5213 236.991 46.2227 236.778 45.86C236.607 45.5613 236.426 45.1987 236.234 44.772C236.063 44.324 235.946 43.8013 235.882 43.204C235.306 44.4627 234.495 45.3587 233.45 45.892C232.404 46.4253 231.316 46.692 230.186 46.692C228.5 46.692 227.295 46.2013 226.57 45.22C225.866 44.2387 225.514 42.8947 225.514 41.188V30.564H229.162V41.124C229.162 42.02 229.322 42.724 229.642 43.236C229.962 43.748 230.506 44.004 231.274 44.004C231.743 44.004 232.202 43.876 232.65 43.62C233.119 43.3427 233.535 42.9587 233.898 42.468C234.282 41.9773 234.58 41.3907 234.794 40.708C235.028 40.004 235.146 39.2253 235.146 38.372V30.564ZM256.1 38.788C256.1 40.068 256.175 41.1453 256.324 42.02C256.495 42.8733 256.676 43.5667 256.868 44.1C257.103 44.74 257.359 45.2413 257.636 45.604L254.788 46.756C254.511 46.4787 254.255 46.148 254.02 45.764C253.828 45.4227 253.647 45.0173 253.476 44.548C253.306 44.0573 253.199 43.4813 253.156 42.82C252.794 44.1 252.207 45.0707 251.396 45.732C250.607 46.372 249.53 46.692 248.164 46.692C247.162 46.692 246.287 46.5107 245.54 46.148C244.815 45.764 244.207 45.2307 243.716 44.548C243.226 43.844 242.863 43.0013 242.628 42.02C242.394 41.0387 242.276 39.9507 242.276 38.756C242.276 37.54 242.458 36.42 242.82 35.396C243.204 34.3507 243.727 33.4547 244.388 32.708C245.071 31.9613 245.882 31.3747 246.82 30.948C247.759 30.5213 248.794 30.308 249.924 30.308C250.564 30.308 251.226 30.3613 251.908 30.468C252.612 30.5533 253.263 30.6493 253.86 30.756C254.458 30.8627 254.959 30.9693 255.364 31.076C255.791 31.1613 256.036 31.2147 256.1 31.236V38.788ZM248.772 44.132C249.306 44.132 249.796 43.9507 250.244 43.588C250.692 43.2253 251.076 42.756 251.396 42.18C251.738 41.5827 251.994 40.9107 252.164 40.164C252.356 39.396 252.452 38.6173 252.452 37.828V33.22C252.239 33.156 251.919 33.0813 251.492 32.996C251.066 32.9107 250.682 32.868 250.34 32.868C249.53 32.868 248.858 33.0067 248.324 33.284C247.812 33.5613 247.396 33.9453 247.076 34.436C246.756 34.9267 246.532 35.5133 246.404 36.196C246.276 36.8787 246.212 37.6253 246.212 38.436C246.212 39.1827 246.234 39.8973 246.276 40.58C246.319 41.2627 246.426 41.8707 246.596 42.404C246.788 42.9373 247.055 43.364 247.396 43.684C247.738 43.9827 248.196 44.132 248.772 44.132ZM266.904 33.892C266.52 33.892 266.136 33.988 265.752 34.18C265.368 34.372 265.026 34.6387 264.728 34.98C264.429 35.3 264.184 35.6947 263.992 36.164C263.8 36.6333 263.704 37.156 263.704 37.732V46.5H260.056V38.436C260.056 37.156 259.97 36.0893 259.799 35.236C259.629 34.3613 259.448 33.6573 259.256 33.124C259.021 32.5053 258.765 32.004 258.488 31.62L261.368 30.468C261.56 30.7027 261.762 30.9907 261.976 31.332C262.146 31.6307 262.317 31.9827 262.488 32.388C262.658 32.7933 262.797 33.2733 262.904 33.828C263.33 32.5907 263.949 31.7053 264.76 31.172C265.57 30.6173 266.488 30.34 267.512 30.34C268.002 30.34 268.461 30.404 268.888 30.532C269.314 30.6387 269.517 30.692 269.496 30.692L268.472 34.244C268.493 34.244 268.365 34.1907 268.088 34.084C267.832 33.956 267.437 33.892 266.904 33.892ZM288.376 34.308C288.056 33.9453 287.726 33.636 287.384 33.38C287.064 33.124 286.627 32.996 286.072 32.996C285.752 32.996 285.39 33.0493 284.984 33.156C284.6 33.2413 284.238 33.476 283.896 33.86C283.555 34.2227 283.267 34.7667 283.032 35.492C282.819 36.2173 282.712 37.1987 282.712 38.436C282.712 39.6947 282.819 40.6973 283.032 41.444C283.267 42.1693 283.555 42.7347 283.896 43.14C284.259 43.5453 284.643 43.812 285.048 43.94C285.454 44.0467 285.848 44.1 286.232 44.1C286.531 44.1 286.84 44.0787 287.16 44.036C287.48 43.972 287.79 43.908 288.088 43.844C288.387 43.7587 288.643 43.684 288.856 43.62C289.091 43.556 289.262 43.5027 289.368 43.46L290.264 45.764C290.2 45.7853 290.051 45.8493 289.816 45.956C289.603 46.0627 289.304 46.1693 288.92 46.276C288.536 46.3827 288.078 46.4787 287.544 46.564C287.011 46.6707 286.414 46.724 285.752 46.724C284.515 46.724 283.459 46.5427 282.584 46.18C281.71 45.796 280.984 45.2627 280.408 44.58C279.854 43.8973 279.438 43.076 279.16 42.116C278.904 41.156 278.776 40.0893 278.776 38.916C278.776 37.508 278.958 36.26 279.32 35.172C279.704 34.084 280.227 33.1773 280.888 32.452C281.55 31.7053 282.328 31.14 283.224 30.756C284.12 30.372 285.08 30.18 286.104 30.18C287.107 30.18 287.95 30.372 288.632 30.756C289.336 31.14 289.934 31.6733 290.424 32.356L288.376 34.308ZM298.885 30.18C301.338 30.18 303.119 30.9053 304.229 32.356C305.338 33.8067 305.893 35.8013 305.893 38.34C305.893 39.5347 305.743 40.6547 305.445 41.7C305.146 42.724 304.687 43.62 304.069 44.388C303.471 45.1347 302.714 45.732 301.797 46.18C300.879 46.6067 299.813 46.82 298.597 46.82C297.381 46.82 296.325 46.6387 295.429 46.276C294.554 45.892 293.829 45.348 293.253 44.644C292.677 43.94 292.25 43.0867 291.973 42.084C291.717 41.0813 291.589 39.9507 291.589 38.692C291.589 37.476 291.738 36.356 292.037 35.332C292.335 34.2867 292.783 33.3907 293.381 32.644C293.999 31.876 294.767 31.2787 295.685 30.852C296.602 30.404 297.669 30.18 298.885 30.18ZM298.565 32.868C297.946 32.868 297.434 33.0067 297.029 33.284C296.645 33.5613 296.335 33.956 296.101 34.468C295.887 34.9587 295.738 35.5453 295.653 36.228C295.567 36.8893 295.525 37.604 295.525 38.372C295.525 39.1613 295.567 39.908 295.653 40.612C295.759 41.316 295.941 41.9347 296.197 42.468C296.453 42.98 296.794 43.3853 297.221 43.684C297.669 43.9827 298.234 44.132 298.917 44.132C299.535 44.132 300.037 43.9933 300.421 43.716C300.826 43.4387 301.135 43.0547 301.349 42.564C301.583 42.052 301.743 41.4653 301.829 40.804C301.914 40.1427 301.957 39.428 301.957 38.66C301.957 37.8707 301.903 37.124 301.797 36.42C301.711 35.716 301.541 35.0973 301.285 34.564C301.029 34.0307 300.677 33.6147 300.229 33.316C299.802 33.0173 299.247 32.868 298.565 32.868ZM319 46.5V36.164C319 35.268 318.84 34.5533 318.52 34.02C318.2 33.4653 317.656 33.188 316.888 33.188C316.397 33.188 315.917 33.316 315.448 33.572C315 33.8067 314.595 34.1587 314.232 34.628C313.869 35.0973 313.571 35.6733 313.336 36.356C313.123 37.0173 313.016 37.764 313.016 38.596V46.5H309.368V38.436C309.368 37.156 309.283 36.0893 309.112 35.236C308.941 34.3613 308.76 33.6573 308.568 33.124C308.333 32.5053 308.077 32.004 307.8 31.62L310.68 30.468C310.893 30.7027 311.107 30.9907 311.32 31.332C311.491 31.6307 311.661 32.004 311.832 32.452C312.003 32.8787 312.141 33.3693 312.248 33.924C312.803 32.644 313.603 31.7267 314.648 31.172C315.693 30.596 316.792 30.308 317.944 30.308C319.587 30.308 320.771 30.8093 321.496 31.812C322.243 32.7933 322.616 34.1267 322.616 35.812V46.5H319ZM343.311 51.108C344.271 50.6387 345.007 50.116 345.519 49.54C346.031 48.9853 346.404 48.4093 346.639 47.812C346.895 47.236 347.033 46.66 347.055 46.084C347.097 45.4867 347.119 44.932 347.119 44.42V43.972C346.628 44.868 345.913 45.5613 344.975 46.052C344.036 46.5213 342.948 46.756 341.711 46.756C340.367 46.756 339.215 46.5 338.255 45.988C337.295 45.476 336.505 44.7507 335.887 43.812C335.268 42.852 334.809 41.7107 334.511 40.388C334.233 39.0653 334.095 37.5933 334.095 35.972C334.095 34.308 334.287 32.7827 334.671 31.396C335.055 29.988 335.631 28.7827 336.399 27.78C337.188 26.756 338.169 25.9667 339.343 25.412C340.537 24.836 341.945 24.548 343.567 24.548C344.996 24.548 346.191 24.7827 347.151 25.252C348.132 25.7213 348.9 26.244 349.455 26.82L347.599 29.252C347.044 28.6973 346.361 28.2707 345.551 27.972C344.761 27.652 343.951 27.492 343.119 27.492C342.201 27.492 341.433 27.7053 340.815 28.132C340.196 28.5587 339.695 29.1453 339.311 29.892C338.927 30.6173 338.649 31.4813 338.479 32.484C338.308 33.4653 338.223 34.5213 338.223 35.652C338.223 36.868 338.297 37.9773 338.447 38.98C338.617 39.9613 338.863 40.8147 339.183 41.54C339.524 42.244 339.961 42.7987 340.495 43.204C341.028 43.588 341.679 43.78 342.447 43.78C342.937 43.78 343.439 43.6733 343.951 43.46C344.463 43.2253 344.921 42.9053 345.327 42.5C345.753 42.0733 346.095 41.5613 346.351 40.964C346.607 40.3667 346.735 39.684 346.735 38.916V36.004H350.479V45.636C350.479 46.9373 350.297 48.0253 349.935 48.9C349.593 49.7747 349.145 50.5 348.591 51.076C348.057 51.6733 347.449 52.164 346.767 52.548C346.105 52.9533 345.444 53.316 344.783 53.636L343.311 51.108ZM360.51 30.18C362.963 30.18 364.744 30.9053 365.854 32.356C366.963 33.8067 367.518 35.8013 367.518 38.34C367.518 39.5347 367.368 40.6547 367.07 41.7C366.771 42.724 366.312 43.62 365.694 44.388C365.096 45.1347 364.339 45.732 363.422 46.18C362.504 46.6067 361.438 46.82 360.222 46.82C359.006 46.82 357.95 46.6387 357.054 46.276C356.179 45.892 355.454 45.348 354.878 44.644C354.302 43.94 353.875 43.0867 353.598 42.084C353.342 41.0813 353.214 39.9507 353.214 38.692C353.214 37.476 353.363 36.356 353.662 35.332C353.96 34.2867 354.408 33.3907 355.006 32.644C355.624 31.876 356.392 31.2787 357.31 30.852C358.227 30.404 359.294 30.18 360.51 30.18ZM360.19 32.868C359.571 32.868 359.059 33.0067 358.654 33.284C358.27 33.5613 357.96 33.956 357.726 34.468C357.512 34.9587 357.363 35.5453 357.278 36.228C357.192 36.8893 357.15 37.604 357.15 38.372C357.15 39.1613 357.192 39.908 357.278 40.612C357.384 41.316 357.566 41.9347 357.822 42.468C358.078 42.98 358.419 43.3853 358.846 43.684C359.294 43.9827 359.859 44.132 360.542 44.132C361.16 44.132 361.662 43.9933 362.046 43.716C362.451 43.4387 362.76 43.0547 362.974 42.564C363.208 42.052 363.368 41.4653 363.454 40.804C363.539 40.1427 363.582 39.428 363.582 38.66C363.582 37.8707 363.528 37.124 363.422 36.42C363.336 35.716 363.166 35.0973 362.91 34.564C362.654 34.0307 362.302 33.6147 361.854 33.316C361.427 33.0173 360.872 32.868 360.19 32.868ZM377.041 30.18C379.494 30.18 381.276 30.9053 382.385 32.356C383.494 33.8067 384.049 35.8013 384.049 38.34C384.049 39.5347 383.9 40.6547 383.601 41.7C383.302 42.724 382.844 43.62 382.225 44.388C381.628 45.1347 380.87 45.732 379.953 46.18C379.036 46.6067 377.969 46.82 376.753 46.82C375.537 46.82 374.481 46.6387 373.585 46.276C372.71 45.892 371.985 45.348 371.409 44.644C370.833 43.94 370.406 43.0867 370.129 42.084C369.873 41.0813 369.745 39.9507 369.745 38.692C369.745 37.476 369.894 36.356 370.193 35.332C370.492 34.2867 370.94 33.3907 371.537 32.644C372.156 31.876 372.924 31.2787 373.841 30.852C374.758 30.404 375.825 30.18 377.041 30.18ZM376.721 32.868C376.102 32.868 375.59 33.0067 375.185 33.284C374.801 33.5613 374.492 33.956 374.257 34.468C374.044 34.9587 373.894 35.5453 373.809 36.228C373.724 36.8893 373.681 37.604 373.681 38.372C373.681 39.1613 373.724 39.908 373.809 40.612C373.916 41.316 374.097 41.9347 374.353 42.468C374.609 42.98 374.95 43.3853 375.377 43.684C375.825 43.9827 376.39 44.132 377.073 44.132C377.692 44.132 378.193 43.9933 378.577 43.716C378.982 43.4387 379.292 43.0547 379.505 42.564C379.74 42.052 379.9 41.4653 379.985 40.804C380.07 40.1427 380.113 39.428 380.113 38.66C380.113 37.8707 380.06 37.124 379.953 36.42C379.868 35.716 379.697 35.0973 379.441 34.564C379.185 34.0307 378.833 33.6147 378.385 33.316C377.958 33.0173 377.404 32.868 376.721 32.868ZM389.636 49.316C389.956 49.444 390.298 49.572 390.66 49.7C391.023 49.8493 391.407 49.988 391.812 50.116C392.218 50.244 392.623 50.3507 393.028 50.436C393.455 50.5213 393.871 50.564 394.276 50.564C395.471 50.564 396.335 50.2013 396.868 49.476C397.402 48.772 397.668 47.8547 397.668 46.724C397.668 45.6147 397.434 44.4947 396.964 43.364C396.602 44.452 396.026 45.284 395.236 45.86C394.468 46.4147 393.444 46.692 392.164 46.692C391.162 46.692 390.287 46.5107 389.54 46.148C388.815 45.764 388.207 45.2307 387.716 44.548C387.226 43.844 386.863 43.0013 386.628 42.02C386.394 41.0387 386.276 39.9507 386.276 38.756C386.276 37.54 386.458 36.42 386.82 35.396C387.204 34.3507 387.727 33.4547 388.388 32.708C389.071 31.9613 389.882 31.3747 390.82 30.948C391.759 30.5213 392.794 30.308 393.924 30.308C394.436 30.308 394.98 30.34 395.556 30.404C396.154 30.468 396.73 30.5533 397.284 30.66C397.86 30.7453 398.394 30.8413 398.884 30.948C399.396 31.0547 399.834 31.1507 400.196 31.236L400.036 40.036C400.015 40.676 400.047 41.2627 400.132 41.796C400.239 42.3293 400.356 42.8627 400.484 43.396C400.612 43.908 400.73 44.4307 400.836 44.964C400.943 45.4973 400.996 46.084 400.996 46.724C400.996 48.9853 400.42 50.6707 399.268 51.78C398.116 52.8893 396.559 53.444 394.596 53.444C393.956 53.444 393.316 53.38 392.676 53.252C392.036 53.1453 391.439 53.0173 390.884 52.868C390.351 52.7187 389.892 52.5693 389.508 52.42C389.124 52.2707 388.868 52.164 388.74 52.1L389.636 49.316ZM392.772 44.132C393.284 44.132 393.754 43.9613 394.18 43.62C394.628 43.2787 395.023 42.8307 395.364 42.276C395.706 41.7 395.972 41.0493 396.164 40.324C396.356 39.5987 396.452 38.852 396.452 38.084V33.22C396.239 33.156 395.919 33.0813 395.492 32.996C395.066 32.9107 394.682 32.868 394.34 32.868C393.53 32.868 392.858 33.0067 392.324 33.284C391.812 33.5613 391.396 33.9453 391.076 34.436C390.756 34.9267 390.532 35.5133 390.404 36.196C390.276 36.8787 390.212 37.6253 390.212 38.436C390.212 39.1827 390.234 39.8973 390.276 40.58C390.319 41.2627 390.426 41.8707 390.596 42.404C390.788 42.9373 391.055 43.364 391.396 43.684C391.738 43.9827 392.196 44.132 392.772 44.132ZM407.628 46.628C406.412 46.628 405.516 46.2973 404.94 45.636C404.364 44.9533 404.076 44.0893 404.076 43.044V23.94L407.724 23.268V42.692C407.724 43.1827 407.82 43.524 408.012 43.716C408.204 43.908 408.482 44.004 408.844 44.004C409.058 44.004 409.26 43.9933 409.452 43.972C409.666 43.9507 409.858 43.9187 410.028 43.876C410.22 43.8333 410.391 43.7907 410.54 43.748L410.988 46.052C410.711 46.1587 410.402 46.2547 410.06 46.34C409.762 46.4253 409.41 46.4893 409.004 46.532C408.599 46.596 408.14 46.628 407.628 46.628ZM412.12 38.916C412.12 37.4867 412.312 36.228 412.696 35.14C413.101 34.052 413.645 33.1453 414.328 32.42C415.032 31.6733 415.853 31.1187 416.792 30.756C417.731 30.372 418.744 30.18 419.832 30.18C420.792 30.18 421.603 30.2973 422.264 30.532C422.947 30.7667 423.501 31.0867 423.928 31.492C424.355 31.8973 424.664 32.3773 424.856 32.932C425.069 33.4867 425.176 34.084 425.176 34.724C425.176 35.492 424.963 36.228 424.536 36.932C424.109 37.6147 423.491 38.2227 422.68 38.756C421.891 39.268 420.931 39.684 419.8 40.004C418.669 40.3027 417.4 40.4627 415.992 40.484C416.056 40.9747 416.152 41.444 416.28 41.892C416.429 42.3187 416.632 42.7027 416.888 43.044C417.165 43.364 417.517 43.62 417.944 43.812C418.371 44.004 418.904 44.1 419.544 44.1C420.013 44.1 420.515 44.0467 421.048 43.94C421.581 43.8333 422.072 43.7053 422.52 43.556C423.053 43.3853 423.576 43.1933 424.088 42.98L425.048 45.252C424.493 45.5293 423.896 45.7747 423.256 45.988C422.701 46.18 422.061 46.3507 421.336 46.5C420.611 46.6493 419.843 46.724 419.032 46.724C417.795 46.724 416.739 46.5427 415.864 46.18C414.989 45.796 414.275 45.2627 413.72 44.58C413.165 43.8973 412.76 43.076 412.504 42.116C412.248 41.156 412.12 40.0893 412.12 38.916ZM419.544 32.676C418.84 32.676 418.253 32.8467 417.784 33.188C417.336 33.508 416.973 33.9347 416.696 34.468C416.419 34.98 416.216 35.5667 416.088 36.228C415.981 36.868 415.917 37.5187 415.896 38.18C416.92 38.1373 417.784 38.0093 418.488 37.796C419.213 37.5613 419.8 37.284 420.248 36.964C420.696 36.6227 421.016 36.26 421.208 35.876C421.421 35.492 421.528 35.108 421.528 34.724C421.528 34.1053 421.347 33.6147 420.984 33.252C420.621 32.868 420.141 32.676 419.544 32.676Z" fill="#909090"/>
</g>
<defs>
<filter id="filter0_d_141_5409" x="0" y="0" width="508" height="78" filterUnits="userSpaceOnUse" color-interpolation-filters="sRGB">
<feFlood flood-opacity="0" result="BackgroundImageFix"/>
<feColorMatrix in="SourceAlpha" type="matrix" values="0 0 0 0 0 0 0 0 0 0 0 0 0 0 0 0 0 0 127 0" result="hardAlpha"/>
<feOffset dy="4"/>
<feGaussianBlur stdDeviation="2"/>
<feComposite in2="hardAlpha" operator="out"/>
<feColorMatrix type="matrix" values="0 0 0 0 0 0 0 0 0 0 0 0 0 0 0 0 0 0 0.25 0"/>
<feBlend mode="normal" in2="BackgroundImageFix" result="effect1_dropShadow_141_5409"/>
<feBlend mode="normal" in="SourceGraphic" in2="effect1_dropShadow_141_5409" result="shape"/>
</filter>
</defs>
</svg>
