<svg width="508" height="78" viewBox="0 0 508 78" fill="none" xmlns="http://www.w3.org/2000/svg">
<g filter="url(#filter0_d_141_5418)">
<rect x="4" width="500" height="70" rx="10" fill="#1877F2" shape-rendering="crispEdges"/>
<path d="M109.5 35.1467C109.5 21.8108 98.7548 11 85.5 11C72.2452 11 61.5 21.8108 61.5 35.1467C61.5 47.199 70.2765 57.1885 81.75 59V42.1266H75.6563V35.1467H81.75V29.8269C81.75 23.7751 85.333 20.4323 90.8152 20.4323C93.441 20.4323 96.1875 20.9039 96.1875 20.9039V26.8463H93.1612C90.1798 26.8463 89.25 28.7076 89.25 30.6171V35.1467H95.9062L94.8422 42.1266H89.25V59C100.724 57.1885 109.5 47.199 109.5 35.1467Z" fill="white"/>
<path d="M138.644 29.188C138.132 28.6333 137.588 28.2173 137.012 27.94C136.457 27.6413 135.807 27.492 135.06 27.492C134.143 27.492 133.364 27.7053 132.724 28.132C132.105 28.5373 131.604 29.1133 131.22 29.86C130.836 30.5853 130.559 31.4387 130.388 32.42C130.217 33.4013 130.132 34.4573 130.132 35.588C130.132 36.7187 130.207 37.7747 130.356 38.756C130.527 39.7373 130.804 40.6013 131.188 41.348C131.593 42.0947 132.127 42.6813 132.788 43.108C133.471 43.5347 134.324 43.748 135.348 43.748C135.839 43.748 136.308 43.7053 136.756 43.62C137.204 43.5347 137.609 43.4493 137.972 43.364C138.356 43.2573 138.665 43.1613 138.9 43.076C139.156 42.9907 139.316 42.9373 139.38 42.916L140.276 45.604L139.86 45.764C139.583 45.8707 139.188 45.9987 138.676 46.148C138.185 46.276 137.588 46.3933 136.884 46.5C136.201 46.628 135.444 46.692 134.612 46.692C131.753 46.692 129.599 45.7853 128.148 43.972C126.719 42.1373 126.004 39.46 126.004 35.94C126.004 34.2547 126.196 32.7187 126.58 31.332C126.964 29.924 127.54 28.7187 128.308 27.716C129.097 26.7133 130.079 25.9347 131.252 25.38C132.447 24.8253 133.844 24.548 135.444 24.548C136.724 24.548 137.769 24.7827 138.58 25.252C139.412 25.7213 140.084 26.2547 140.596 26.852L138.644 29.188ZM148.229 30.18C150.682 30.18 152.463 30.9053 153.573 32.356C154.682 33.8067 155.237 35.8013 155.237 38.34C155.237 39.5347 155.087 40.6547 154.789 41.7C154.49 42.724 154.031 43.62 153.413 44.388C152.815 45.1347 152.058 45.732 151.141 46.18C150.223 46.6067 149.157 46.82 147.941 46.82C146.725 46.82 145.669 46.6387 144.773 46.276C143.898 45.892 143.173 45.348 142.597 44.644C142.021 43.94 141.594 43.0867 141.317 42.084C141.061 41.0813 140.933 39.9507 140.933 38.692C140.933 37.476 141.082 36.356 141.381 35.332C141.679 34.2867 142.127 33.3907 142.725 32.644C143.343 31.876 144.111 31.2787 145.029 30.852C145.946 30.404 147.013 30.18 148.229 30.18ZM147.909 32.868C147.29 32.868 146.778 33.0067 146.373 33.284C145.989 33.5613 145.679 33.956 145.445 34.468C145.231 34.9587 145.082 35.5453 144.997 36.228C144.911 36.8893 144.869 37.604 144.869 38.372C144.869 39.1613 144.911 39.908 144.997 40.612C145.103 41.316 145.285 41.9347 145.541 42.468C145.797 42.98 146.138 43.3853 146.565 43.684C147.013 43.9827 147.578 44.132 148.26 44.132C148.879 44.132 149.381 43.9933 149.765 43.716C150.17 43.4387 150.479 43.0547 150.693 42.564C150.927 42.052 151.087 41.4653 151.173 40.804C151.258 40.1427 151.301 39.428 151.301 38.66C151.301 37.8707 151.247 37.124 151.141 36.42C151.055 35.716 150.885 35.0973 150.629 34.564C150.373 34.0307 150.021 33.6147 149.573 33.316C149.146 33.0173 148.591 32.868 147.909 32.868ZM168.344 46.5V36.164C168.344 35.268 168.184 34.5533 167.864 34.02C167.544 33.4653 167 33.188 166.232 33.188C165.741 33.188 165.261 33.316 164.792 33.572C164.344 33.8067 163.938 34.1587 163.576 34.628C163.213 35.0973 162.914 35.6733 162.68 36.356C162.466 37.0173 162.36 37.764 162.36 38.596V46.5H158.712V38.436C158.712 37.156 158.626 36.0893 158.456 35.236C158.285 34.3613 158.104 33.6573 157.912 33.124C157.677 32.5053 157.421 32.004 157.144 31.62L160.024 30.468C160.237 30.7027 160.45 30.9907 160.664 31.332C160.834 31.6307 161.005 32.004 161.176 32.452C161.346 32.8787 161.485 33.3693 161.592 33.924C162.146 32.644 162.946 31.7267 163.992 31.172C165.037 30.596 166.136 30.308 167.288 30.308C168.93 30.308 170.114 30.8093 170.84 31.812C171.586 32.7933 171.96 34.1267 171.96 35.812V46.5H168.344ZM174.226 30.564H177.106L177.746 26.82L180.754 26.148V30.564H184.69L184.242 33.156H180.754V42.628C180.754 43.1827 180.904 43.5453 181.202 43.716C181.501 43.8653 181.832 43.94 182.194 43.94C182.493 43.94 182.792 43.9187 183.09 43.876C183.389 43.8333 183.656 43.78 183.89 43.716C184.168 43.652 184.434 43.5773 184.69 43.492L185.298 45.892L185.01 45.988C184.818 46.0733 184.53 46.1693 184.146 46.276C183.784 46.3613 183.346 46.436 182.834 46.5C182.344 46.5853 181.8 46.628 181.202 46.628C180.605 46.628 180.05 46.564 179.538 46.436C179.048 46.308 178.621 46.1053 178.258 45.828C177.896 45.5293 177.608 45.156 177.394 44.708C177.202 44.26 177.106 43.7053 177.106 43.044V33.156H174.226V30.564ZM190.909 46.628C189.778 46.628 188.914 46.2973 188.317 45.636C187.719 44.9533 187.421 44.0787 187.421 43.012V30.564H191.069V42.692C191.069 43.1827 191.143 43.5133 191.293 43.684C191.442 43.8547 191.666 43.94 191.965 43.94C192.05 43.94 192.135 43.94 192.221 43.94C192.327 43.94 192.423 43.9293 192.509 43.908C192.594 43.908 192.69 43.8973 192.797 43.876L193.181 46.18C193.031 46.2653 192.839 46.34 192.605 46.404C192.413 46.468 192.167 46.5213 191.869 46.564C191.591 46.6067 191.271 46.628 190.909 46.628ZM189.309 23.46C189.991 23.46 190.514 23.6627 190.877 24.068C191.239 24.4733 191.421 24.996 191.421 25.636C191.421 26.276 191.229 26.8093 190.845 27.236C190.482 27.6627 189.938 27.876 189.213 27.876C188.53 27.876 187.997 27.6733 187.613 27.268C187.25 26.8413 187.069 26.3293 187.069 25.732C187.069 25.0707 187.25 24.5267 187.613 24.1C187.997 23.6733 188.562 23.46 189.309 23.46ZM205.656 46.5V36.164C205.656 35.268 205.496 34.5533 205.176 34.02C204.856 33.4653 204.312 33.188 203.544 33.188C203.054 33.188 202.574 33.316 202.104 33.572C201.656 33.8067 201.251 34.1587 200.888 34.628C200.526 35.0973 200.227 35.6733 199.992 36.356C199.779 37.0173 199.672 37.764 199.672 38.596V46.5H196.024V38.436C196.024 37.156 195.939 36.0893 195.768 35.236C195.598 34.3613 195.416 33.6573 195.224 33.124C194.99 32.5053 194.734 32.004 194.456 31.62L197.336 30.468C197.55 30.7027 197.763 30.9907 197.976 31.332C198.147 31.6307 198.318 32.004 198.488 32.452C198.659 32.8787 198.798 33.3693 198.904 33.924C199.459 32.644 200.259 31.7267 201.304 31.172C202.35 30.596 203.448 30.308 204.6 30.308C206.243 30.308 207.427 30.8093 208.152 31.812C208.899 32.7933 209.272 34.1267 209.272 35.812V46.5H205.656ZM222.771 30.564H226.419V38.788C226.419 40.068 226.493 41.1453 226.643 42.02C226.813 42.8733 226.995 43.5667 227.187 44.1C227.421 44.74 227.677 45.2413 227.955 45.604L225.107 46.756C224.851 46.5213 224.616 46.2227 224.403 45.86C224.232 45.5613 224.051 45.1987 223.859 44.772C223.688 44.324 223.571 43.8013 223.507 43.204C222.931 44.4627 222.12 45.3587 221.075 45.892C220.029 46.4253 218.941 46.692 217.811 46.692C216.125 46.692 214.92 46.2013 214.195 45.22C213.491 44.2387 213.139 42.8947 213.139 41.188V30.564H216.787V41.124C216.787 42.02 216.947 42.724 217.267 43.236C217.587 43.748 218.131 44.004 218.899 44.004C219.368 44.004 219.827 43.876 220.275 43.62C220.744 43.3427 221.16 42.9587 221.523 42.468C221.907 41.9773 222.205 41.3907 222.419 40.708C222.653 40.004 222.771 39.2253 222.771 38.372V30.564ZM243.725 38.788C243.725 40.068 243.8 41.1453 243.949 42.02C244.12 42.8733 244.301 43.5667 244.493 44.1C244.728 44.74 244.984 45.2413 245.261 45.604L242.413 46.756C242.136 46.4787 241.88 46.148 241.645 45.764C241.453 45.4227 241.272 45.0173 241.101 44.548C240.931 44.0573 240.824 43.4813 240.781 42.82C240.419 44.1 239.832 45.0707 239.021 45.732C238.232 46.372 237.155 46.692 235.789 46.692C234.787 46.692 233.912 46.5107 233.165 46.148C232.44 45.764 231.832 45.2307 231.341 44.548C230.851 43.844 230.488 43.0013 230.253 42.02C230.019 41.0387 229.901 39.9507 229.901 38.756C229.901 37.54 230.083 36.42 230.445 35.396C230.829 34.3507 231.352 33.4547 232.013 32.708C232.696 31.9613 233.507 31.3747 234.445 30.948C235.384 30.5213 236.419 30.308 237.549 30.308C238.189 30.308 238.851 30.3613 239.533 30.468C240.237 30.5533 240.888 30.6493 241.485 30.756C242.083 30.8627 242.584 30.9693 242.989 31.076C243.416 31.1613 243.661 31.2147 243.725 31.236V38.788ZM236.397 44.132C236.931 44.132 237.421 43.9507 237.869 43.588C238.317 43.2253 238.701 42.756 239.021 42.18C239.363 41.5827 239.619 40.9107 239.789 40.164C239.981 39.396 240.077 38.6173 240.077 37.828V33.22C239.864 33.156 239.544 33.0813 239.117 32.996C238.691 32.9107 238.307 32.868 237.965 32.868C237.155 32.868 236.483 33.0067 235.949 33.284C235.437 33.5613 235.021 33.9453 234.701 34.436C234.381 34.9267 234.157 35.5133 234.029 36.196C233.901 36.8787 233.837 37.6253 233.837 38.436C233.837 39.1827 233.859 39.8973 233.901 40.58C233.944 41.2627 234.051 41.8707 234.221 42.404C234.413 42.9373 234.68 43.364 235.021 43.684C235.363 43.9827 235.821 44.132 236.397 44.132ZM254.529 33.892C254.145 33.892 253.761 33.988 253.377 34.18C252.993 34.372 252.651 34.6387 252.353 34.98C252.054 35.3 251.809 35.6947 251.617 36.164C251.425 36.6333 251.329 37.156 251.329 37.732V46.5H247.681V38.436C247.681 37.156 247.595 36.0893 247.424 35.236C247.254 34.3613 247.073 33.6573 246.881 33.124C246.646 32.5053 246.39 32.004 246.113 31.62L248.993 30.468C249.185 30.7027 249.387 30.9907 249.601 31.332C249.771 31.6307 249.942 31.9827 250.113 32.388C250.283 32.7933 250.422 33.2733 250.529 33.828C250.955 32.5907 251.574 31.7053 252.385 31.172C253.195 30.6173 254.113 30.34 255.137 30.34C255.627 30.34 256.086 30.404 256.513 30.532C256.939 30.6387 257.142 30.692 257.121 30.692L256.097 34.244C256.118 34.244 255.99 34.1907 255.713 34.084C255.457 33.956 255.062 33.892 254.529 33.892ZM276.001 34.308C275.681 33.9453 275.351 33.636 275.009 33.38C274.689 33.124 274.252 32.996 273.697 32.996C273.377 32.996 273.015 33.0493 272.609 33.156C272.225 33.2413 271.863 33.476 271.521 33.86C271.18 34.2227 270.892 34.7667 270.657 35.492C270.444 36.2173 270.337 37.1987 270.337 38.436C270.337 39.6947 270.444 40.6973 270.657 41.444C270.892 42.1693 271.18 42.7347 271.521 43.14C271.884 43.5453 272.268 43.812 272.673 43.94C273.079 44.0467 273.473 44.1 273.857 44.1C274.156 44.1 274.465 44.0787 274.785 44.036C275.105 43.972 275.415 43.908 275.713 43.844C276.012 43.7587 276.268 43.684 276.481 43.62C276.716 43.556 276.887 43.5027 276.993 43.46L277.889 45.764C277.825 45.7853 277.676 45.8493 277.441 45.956C277.228 46.0627 276.929 46.1693 276.545 46.276C276.161 46.3827 275.703 46.4787 275.169 46.564C274.636 46.6707 274.039 46.724 273.377 46.724C272.14 46.724 271.084 46.5427 270.209 46.18C269.335 45.796 268.609 45.2627 268.033 44.58C267.479 43.8973 267.063 43.076 266.785 42.116C266.529 41.156 266.401 40.0893 266.401 38.916C266.401 37.508 266.583 36.26 266.945 35.172C267.329 34.084 267.852 33.1773 268.513 32.452C269.175 31.7053 269.953 31.14 270.849 30.756C271.745 30.372 272.705 30.18 273.729 30.18C274.732 30.18 275.575 30.372 276.257 30.756C276.961 31.14 277.559 31.6733 278.049 32.356L276.001 34.308ZM286.51 30.18C288.963 30.18 290.744 30.9053 291.854 32.356C292.963 33.8067 293.518 35.8013 293.518 38.34C293.518 39.5347 293.368 40.6547 293.07 41.7C292.771 42.724 292.312 43.62 291.694 44.388C291.096 45.1347 290.339 45.732 289.422 46.18C288.504 46.6067 287.438 46.82 286.222 46.82C285.006 46.82 283.95 46.6387 283.054 46.276C282.179 45.892 281.454 45.348 280.878 44.644C280.302 43.94 279.875 43.0867 279.598 42.084C279.342 41.0813 279.214 39.9507 279.214 38.692C279.214 37.476 279.363 36.356 279.662 35.332C279.96 34.2867 280.408 33.3907 281.006 32.644C281.624 31.876 282.392 31.2787 283.31 30.852C284.227 30.404 285.294 30.18 286.51 30.18ZM286.19 32.868C285.571 32.868 285.059 33.0067 284.654 33.284C284.27 33.5613 283.96 33.956 283.726 34.468C283.512 34.9587 283.363 35.5453 283.278 36.228C283.192 36.8893 283.15 37.604 283.15 38.372C283.15 39.1613 283.192 39.908 283.278 40.612C283.384 41.316 283.566 41.9347 283.822 42.468C284.078 42.98 284.419 43.3853 284.846 43.684C285.294 43.9827 285.859 44.132 286.542 44.132C287.16 44.132 287.662 43.9933 288.046 43.716C288.451 43.4387 288.76 43.0547 288.974 42.564C289.208 42.052 289.368 41.4653 289.454 40.804C289.539 40.1427 289.582 39.428 289.582 38.66C289.582 37.8707 289.528 37.124 289.422 36.42C289.336 35.716 289.166 35.0973 288.91 34.564C288.654 34.0307 288.302 33.6147 287.854 33.316C287.427 33.0173 286.872 32.868 286.19 32.868ZM306.625 46.5V36.164C306.625 35.268 306.465 34.5533 306.145 34.02C305.825 33.4653 305.281 33.188 304.513 33.188C304.022 33.188 303.542 33.316 303.073 33.572C302.625 33.8067 302.22 34.1587 301.857 34.628C301.494 35.0973 301.196 35.6733 300.961 36.356C300.748 37.0173 300.641 37.764 300.641 38.596V46.5H296.993V38.436C296.993 37.156 296.908 36.0893 296.737 35.236C296.566 34.3613 296.385 33.6573 296.193 33.124C295.958 32.5053 295.702 32.004 295.425 31.62L298.305 30.468C298.518 30.7027 298.732 30.9907 298.945 31.332C299.116 31.6307 299.286 32.004 299.457 32.452C299.628 32.8787 299.766 33.3693 299.873 33.924C300.428 32.644 301.228 31.7267 302.273 31.172C303.318 30.596 304.417 30.308 305.569 30.308C307.212 30.308 308.396 30.8093 309.121 31.812C309.868 32.7933 310.241 34.1267 310.241 35.812V46.5H306.625ZM322.584 24.836H335.448V27.716H326.392V33.956H333.848L333.368 36.836H326.392V46.5H322.584V24.836ZM349.007 38.788C349.007 40.068 349.081 41.1453 349.231 42.02C349.401 42.8733 349.583 43.5667 349.775 44.1C350.009 44.74 350.265 45.2413 350.543 45.604L347.695 46.756C347.417 46.4787 347.161 46.148 346.927 45.764C346.735 45.4227 346.553 45.0173 346.383 44.548C346.212 44.0573 346.105 43.4813 346.063 42.82C345.7 44.1 345.113 45.0707 344.303 45.732C343.513 46.372 342.436 46.692 341.071 46.692C340.068 46.692 339.193 46.5107 338.447 46.148C337.721 45.764 337.113 45.2307 336.623 44.548C336.132 43.844 335.769 43.0013 335.535 42.02C335.3 41.0387 335.183 39.9507 335.183 38.756C335.183 37.54 335.364 36.42 335.727 35.396C336.111 34.3507 336.633 33.4547 337.295 32.708C337.977 31.9613 338.788 31.3747 339.727 30.948C340.665 30.5213 341.7 30.308 342.831 30.308C343.471 30.308 344.132 30.3613 344.815 30.468C345.519 30.5533 346.169 30.6493 346.767 30.756C347.364 30.8627 347.865 30.9693 348.271 31.076C348.697 31.1613 348.943 31.2147 349.007 31.236V38.788ZM341.679 44.132C342.212 44.132 342.703 43.9507 343.151 43.588C343.599 43.2253 343.983 42.756 344.303 42.18C344.644 41.5827 344.9 40.9107 345.071 40.164C345.263 39.396 345.359 38.6173 345.359 37.828V33.22C345.145 33.156 344.825 33.0813 344.399 32.996C343.972 32.9107 343.588 32.868 343.247 32.868C342.436 32.868 341.764 33.0067 341.231 33.284C340.719 33.5613 340.303 33.9453 339.983 34.436C339.663 34.9267 339.439 35.5133 339.311 36.196C339.183 36.8787 339.119 37.6253 339.119 38.436C339.119 39.1827 339.14 39.8973 339.183 40.58C339.225 41.2627 339.332 41.8707 339.503 42.404C339.695 42.9373 339.961 43.364 340.303 43.684C340.644 43.9827 341.103 44.132 341.679 44.132ZM361.939 34.308C361.619 33.9453 361.288 33.636 360.947 33.38C360.627 33.124 360.189 32.996 359.635 32.996C359.315 32.996 358.952 33.0493 358.547 33.156C358.163 33.2413 357.8 33.476 357.459 33.86C357.117 34.2227 356.829 34.7667 356.595 35.492C356.381 36.2173 356.275 37.1987 356.275 38.436C356.275 39.6947 356.381 40.6973 356.595 41.444C356.829 42.1693 357.117 42.7347 357.459 43.14C357.821 43.5453 358.205 43.812 358.611 43.94C359.016 44.0467 359.411 44.1 359.795 44.1C360.093 44.1 360.403 44.0787 360.723 44.036C361.043 43.972 361.352 43.908 361.651 43.844C361.949 43.7587 362.205 43.684 362.419 43.62C362.653 43.556 362.824 43.5027 362.931 43.46L363.827 45.764C363.763 45.7853 363.613 45.8493 363.379 45.956C363.165 46.0627 362.867 46.1693 362.483 46.276C362.099 46.3827 361.64 46.4787 361.107 46.564C360.573 46.6707 359.976 46.724 359.315 46.724C358.077 46.724 357.021 46.5427 356.147 46.18C355.272 45.796 354.547 45.2627 353.971 44.58C353.416 43.8973 353 43.076 352.723 42.116C352.467 41.156 352.339 40.0893 352.339 38.916C352.339 37.508 352.52 36.26 352.883 35.172C353.267 34.084 353.789 33.1773 354.451 32.452C355.112 31.7053 355.891 31.14 356.787 30.756C357.683 30.372 358.643 30.18 359.667 30.18C360.669 30.18 361.512 30.372 362.195 30.756C362.899 31.14 363.496 31.6733 363.987 32.356L361.939 34.308ZM365.151 38.916C365.151 37.4867 365.343 36.228 365.727 35.14C366.133 34.052 366.677 33.1453 367.359 32.42C368.063 31.6733 368.885 31.1187 369.823 30.756C370.762 30.372 371.775 30.18 372.863 30.18C373.823 30.18 374.634 30.2973 375.295 30.532C375.978 30.7667 376.533 31.0867 376.959 31.492C377.386 31.8973 377.695 32.3773 377.887 32.932C378.101 33.4867 378.207 34.084 378.207 34.724C378.207 35.492 377.994 36.228 377.567 36.932C377.141 37.6147 376.522 38.2227 375.711 38.756C374.922 39.268 373.962 39.684 372.831 40.004C371.701 40.3027 370.431 40.4627 369.023 40.484C369.087 40.9747 369.183 41.444 369.311 41.892C369.461 42.3187 369.663 42.7027 369.919 43.044C370.197 43.364 370.549 43.62 370.975 43.812C371.402 44.004 371.935 44.1 372.575 44.1C373.045 44.1 373.546 44.0467 374.079 43.94C374.613 43.8333 375.103 43.7053 375.551 43.556C376.085 43.3853 376.607 43.1933 377.119 42.98L378.079 45.252C377.525 45.5293 376.927 45.7747 376.287 45.988C375.733 46.18 375.093 46.3507 374.367 46.5C373.642 46.6493 372.874 46.724 372.063 46.724C370.826 46.724 369.77 46.5427 368.895 46.18C368.021 45.796 367.306 45.2627 366.751 44.58C366.197 43.8973 365.791 43.076 365.535 42.116C365.279 41.156 365.151 40.0893 365.151 38.916ZM372.575 32.676C371.871 32.676 371.285 32.8467 370.815 33.188C370.367 33.508 370.005 33.9347 369.727 34.468C369.45 34.98 369.247 35.5667 369.119 36.228C369.013 36.868 368.949 37.5187 368.927 38.18C369.951 38.1373 370.815 38.0093 371.519 37.796C372.245 37.5613 372.831 37.284 373.279 36.964C373.727 36.6227 374.047 36.26 374.239 35.876C374.453 35.492 374.559 35.108 374.559 34.724C374.559 34.1053 374.378 33.6147 374.015 33.252C373.653 32.868 373.173 32.676 372.575 32.676ZM381.236 23.94L384.884 23.3V33.06C385.268 32.1853 385.802 31.5133 386.484 31.044C387.188 30.5533 388.084 30.308 389.172 30.308C390.175 30.308 391.039 30.5 391.764 30.884C392.511 31.2467 393.13 31.78 393.62 32.484C394.111 33.1667 394.474 33.9987 394.708 34.98C394.943 35.9613 395.06 37.0493 395.06 38.244C395.06 39.46 394.868 40.5907 394.484 41.636C394.122 42.66 393.599 43.5453 392.916 44.292C392.255 45.0387 391.455 45.6253 390.516 46.052C389.578 46.4787 388.543 46.692 387.412 46.692C386.772 46.692 386.09 46.6387 385.364 46.532C384.639 46.4467 383.967 46.3507 383.348 46.244C382.644 46.116 381.94 45.956 381.236 45.764V23.94ZM388.564 32.868C388.031 32.868 387.54 33.0493 387.092 33.412C386.644 33.7747 386.25 34.2547 385.908 34.852C385.588 35.4493 385.332 36.1213 385.14 36.868C384.97 37.6147 384.884 38.3827 384.884 39.172V43.812C385.076 43.8547 385.386 43.9187 385.812 44.004C386.239 44.0893 386.634 44.132 386.996 44.132C387.786 44.132 388.447 43.9933 388.98 43.716C389.514 43.4387 389.94 43.0547 390.26 42.564C390.58 42.0733 390.804 41.4867 390.932 40.804C391.06 40.1213 391.124 39.3747 391.124 38.564C391.124 37.8173 391.103 37.1027 391.06 36.42C391.018 35.7373 390.9 35.1293 390.708 34.596C390.538 34.0627 390.282 33.6467 389.94 33.348C389.599 33.028 389.14 32.868 388.564 32.868ZM404.604 30.18C407.057 30.18 408.838 30.9053 409.948 32.356C411.057 33.8067 411.612 35.8013 411.612 38.34C411.612 39.5347 411.462 40.6547 411.164 41.7C410.865 42.724 410.406 43.62 409.788 44.388C409.19 45.1347 408.433 45.732 407.516 46.18C406.598 46.6067 405.532 46.82 404.316 46.82C403.1 46.82 402.044 46.6387 401.148 46.276C400.273 45.892 399.548 45.348 398.972 44.644C398.396 43.94 397.969 43.0867 397.692 42.084C397.436 41.0813 397.308 39.9507 397.308 38.692C397.308 37.476 397.457 36.356 397.756 35.332C398.054 34.2867 398.502 33.3907 399.1 32.644C399.718 31.876 400.486 31.2787 401.404 30.852C402.321 30.404 403.388 30.18 404.604 30.18ZM404.284 32.868C403.665 32.868 403.153 33.0067 402.748 33.284C402.364 33.5613 402.054 33.956 401.82 34.468C401.606 34.9587 401.457 35.5453 401.372 36.228C401.286 36.8893 401.244 37.604 401.244 38.372C401.244 39.1613 401.286 39.908 401.372 40.612C401.478 41.316 401.66 41.9347 401.916 42.468C402.172 42.98 402.513 43.3853 402.94 43.684C403.388 43.9827 403.953 44.132 404.635 44.132C405.254 44.132 405.756 43.9933 406.14 43.716C406.545 43.4387 406.854 43.0547 407.068 42.564C407.302 42.052 407.462 41.4653 407.548 40.804C407.633 40.1427 407.676 39.428 407.676 38.66C407.676 37.8707 407.622 37.124 407.516 36.42C407.43 35.716 407.26 35.0973 407.004 34.564C406.748 34.0307 406.396 33.6147 405.948 33.316C405.521 33.0173 404.966 32.868 404.284 32.868ZM421.135 30.18C423.588 30.18 425.369 30.9053 426.479 32.356C427.588 33.8067 428.143 35.8013 428.143 38.34C428.143 39.5347 427.993 40.6547 427.695 41.7C427.396 42.724 426.937 43.62 426.319 44.388C425.721 45.1347 424.964 45.732 424.047 46.18C423.129 46.6067 422.063 46.82 420.847 46.82C419.631 46.82 418.575 46.6387 417.679 46.276C416.804 45.892 416.079 45.348 415.503 44.644C414.927 43.94 414.5 43.0867 414.223 42.084C413.967 41.0813 413.839 39.9507 413.839 38.692C413.839 37.476 413.988 36.356 414.287 35.332C414.585 34.2867 415.033 33.3907 415.631 32.644C416.249 31.876 417.017 31.2787 417.935 30.852C418.852 30.404 419.919 30.18 421.135 30.18ZM420.815 32.868C420.196 32.868 419.684 33.0067 419.279 33.284C418.895 33.5613 418.585 33.956 418.351 34.468C418.137 34.9587 417.988 35.5453 417.903 36.228C417.817 36.8893 417.775 37.604 417.775 38.372C417.775 39.1613 417.817 39.908 417.903 40.612C418.009 41.316 418.191 41.9347 418.447 42.468C418.703 42.98 419.044 43.3853 419.471 43.684C419.919 43.9827 420.484 44.132 421.167 44.132C421.785 44.132 422.287 43.9933 422.671 43.716C423.076 43.4387 423.385 43.0547 423.599 42.564C423.833 42.052 423.993 41.4653 424.079 40.804C424.164 40.1427 424.207 39.428 424.207 38.66C424.207 37.8707 424.153 37.124 424.047 36.42C423.961 35.716 423.791 35.0973 423.535 34.564C423.279 34.0307 422.927 33.6147 422.479 33.316C422.052 33.0173 421.497 32.868 420.815 32.868ZM434.978 23.3V32.42C435.149 32.2067 435.362 31.9827 435.618 31.748C435.895 31.492 436.237 31.2573 436.642 31.044C437.047 30.8307 437.517 30.6493 438.05 30.5C438.583 30.3507 439.202 30.276 439.906 30.276C440.567 30.276 441.186 30.372 441.762 30.564C442.338 30.756 442.829 31.0333 443.234 31.396C443.661 31.7587 443.991 32.2067 444.226 32.74C444.482 33.252 444.61 33.8387 444.61 34.5C444.61 35.46 444.407 36.2493 444.002 36.868C443.618 37.4867 443.181 37.9773 442.69 38.34C442.135 38.7667 441.495 39.108 440.77 39.364L445.25 46.5H441.122L436.514 38.532L436.482 38.212C436.653 38.1693 436.973 38.0733 437.442 37.924C437.933 37.7747 438.434 37.5613 438.946 37.284C439.458 37.0067 439.906 36.6653 440.29 36.26C440.695 35.8333 440.898 35.332 440.898 34.756C440.898 34.1373 440.717 33.668 440.354 33.348C439.991 33.028 439.511 32.868 438.914 32.868C438.103 32.868 437.442 33.028 436.93 33.348C436.418 33.668 436.013 34.0307 435.714 34.436C435.437 34.8413 435.245 35.2253 435.138 35.588C435.031 35.9507 434.978 36.164 434.978 36.228V46.5H431.33V23.94L434.978 23.3Z" fill="white"/>
</g>
<defs>
<filter id="filter0_d_141_5418" x="0" y="0" width="508" height="78" filterUnits="userSpaceOnUse" color-interpolation-filters="sRGB">
<feFlood flood-opacity="0" result="BackgroundImageFix"/>
<feColorMatrix in="SourceAlpha" type="matrix" values="0 0 0 0 0 0 0 0 0 0 0 0 0 0 0 0 0 0 127 0" result="hardAlpha"/>
<feOffset dy="4"/>
<feGaussianBlur stdDeviation="2"/>
<feComposite in2="hardAlpha" operator="out"/>
<feColorMatrix type="matrix" values="0 0 0 0 0 0 0 0 0 0 0 0 0 0 0 0 0 0 0.25 0"/>
<feBlend mode="normal" in2="BackgroundImageFix" result="effect1_dropShadow_141_5418"/>
<feBlend mode="normal" in="SourceGraphic" in2="effect1_dropShadow_141_5418" result="shape"/>
</filter>
</defs>
</svg>
