<svg width="36" height="29" viewBox="0 0 36 29" fill="none" xmlns="http://www.w3.org/2000/svg">
<path d="M23.7921 20.599L17.6931 14.5L11.5941 20.599" stroke="black" stroke-opacity="0.4" stroke-width="1.52475" stroke-linecap="round" stroke-linejoin="round"/>
<path d="M17.6931 14.5V28.2228" stroke="#AAA5E6" stroke-opacity="0.4" stroke-width="1.52475" stroke-linecap="round" stroke-linejoin="round"/>
<path d="M30.4857 24.2432C31.9729 23.4325 33.1477 22.1496 33.8247 20.597C34.5018 19.0444 34.6425 17.3105 34.2247 15.6691C33.8069 14.0276 32.8544 12.572 31.5175 11.532C30.1806 10.4921 28.5354 9.92691 26.8416 9.92579H24.9204C24.4589 8.14067 23.5987 6.48341 22.4045 5.07859C21.2103 3.67377 19.7131 2.55796 18.0256 1.81503C16.3381 1.07211 14.5041 0.721405 12.6616 0.789293C10.819 0.85718 9.01579 1.34189 7.38752 2.20698C5.75926 3.07207 4.34829 4.29504 3.2607 5.78392C2.17311 7.27281 1.4372 8.98888 1.10829 10.8031C0.779389 12.6174 0.866049 14.4826 1.36176 16.2585C1.85747 18.0344 2.74933 19.6749 3.97029 21.0565" stroke="#D0CDF1" stroke-opacity="0.4" stroke-width="1.52475" stroke-linecap="round" stroke-linejoin="round"/>
<path d="M23.7921 20.599L17.6931 14.5L11.5941 20.599" stroke="#AAA5E6" stroke-opacity="0.666667" stroke-width="1.52475" stroke-linecap="round" stroke-linejoin="round"/>
</svg>
