<svg width="132" height="132" viewBox="0 0 132 132" fill="none" xmlns="http://www.w3.org/2000/svg">
<path fill-rule="evenodd" clip-rule="evenodd" d="M111.2 127H128.8V131H111.2V127Z" fill="#D8D8D8" fill-opacity="0.25"/>
<path fill-rule="evenodd" clip-rule="evenodd" d="M127.2 125H112.8V122.334C112.8 118.652 114 113 120 113C126 113 127.2 118.652 127.2 122.334V125Z" fill="#D8D8D8" fill-opacity="0.25"/>
<path fill-rule="evenodd" clip-rule="evenodd" d="M119.2 107H120.8V111H119.2V107Z" fill="#D8D8D8" fill-opacity="0.25"/>
<path fill-rule="evenodd" clip-rule="evenodd" d="M112.155 109.88L113.286 108.464L115.549 111.292L114.418 112.706L112.155 109.88Z" fill="#D8D8D8" fill-opacity="0.25"/>
<path fill-rule="evenodd" clip-rule="evenodd" d="M128.816 109.294L129.947 110.708L127.685 113.536L126.554 112.122L128.816 109.294Z" fill="#D8D8D8" fill-opacity="0.25"/>
<path fill-rule="evenodd" clip-rule="evenodd" d="M128.8 119H132V121H128.8V119Z" fill="#D8D8D8" fill-opacity="0.25"/>
<path fill-rule="evenodd" clip-rule="evenodd" d="M108 119H110.8V121H108V119Z" fill="#D8D8D8" fill-opacity="0.25"/>
<path d="M57.3516 121.041H57.3456C56.8626 121.041 56.3894 120.997 55.9311 120.912L55.9784 120.919C56.8379 124.011 59.6279 126.243 62.9391 126.243H62.9826H62.9804C66.9876 126.238 70.2351 122.991 70.2389 118.984V118.983C70.2295 117.406 69.7113 115.875 68.7614 114.616C67.8116 113.358 66.4808 112.44 64.9671 111.999L64.9154 111.986C64.9974 112.436 65.038 112.893 65.0369 113.35V113.356C65.0331 117.599 61.5944 121.038 57.3516 121.042H57.3509L57.3516 121.041ZM62.9901 110.353C63.0795 110.232 63.1984 110.137 63.3355 110.076C63.4725 110.014 63.623 109.99 63.7724 110.004H63.7686C68.3849 110.447 71.9691 114.293 71.9946 118.982V118.984C71.9886 123.961 67.9559 127.993 62.9804 128H62.9346C58.2524 128 54.4094 124.411 54.0059 119.833L54.0036 119.8C53.9907 119.657 54.0129 119.514 54.0682 119.382C54.1235 119.25 54.2102 119.134 54.3209 119.043L54.3224 119.041C54.4341 118.949 54.5668 118.887 54.7087 118.859C54.8506 118.831 54.9972 118.839 55.1354 118.882L55.1294 118.88L55.5224 118.997C56.1118 119.19 56.7284 119.288 57.3486 119.286H57.3539C58.9253 119.284 60.4319 118.659 61.5431 117.548C62.6543 116.437 63.2793 114.93 63.2811 113.359V113.345C63.2811 112.573 63.1326 111.835 62.8626 111.159L62.8769 111.199C62.8217 111.059 62.8034 110.907 62.8238 110.758C62.8442 110.609 62.9025 110.468 62.9931 110.348L62.9916 110.35L62.9901 110.353Z" fill="#D8D8D8" fill-opacity="0.25"/>
<path d="M13.2812 106.796C13.2812 106.356 12.9315 106 12.5 106C12.0685 106 11.7187 106.356 11.7187 106.796V108.388C11.7187 108.827 12.0685 109.184 12.5 109.184C12.9315 109.184 13.2812 108.827 13.2812 108.388V106.796Z" fill="#D8D8D8" fill-opacity="0.25"/>
<path d="M19.1448 117.41C18.8435 115.841 18.0168 114.428 16.8061 113.411C15.5954 112.395 14.0758 111.838 12.5069 111.837C10.938 111.835 9.41725 112.389 8.2045 113.403C6.99176 114.417 6.1623 115.828 5.85786 117.396C5.55342 118.964 5.7929 120.591 6.53537 121.999C7.27785 123.407 8.47723 124.509 9.92857 125.116C10.3277 125.283 10.5184 125.748 10.3546 126.154C10.1907 126.561 9.73431 126.755 9.33516 126.588C7.5489 125.841 6.07273 124.485 5.15892 122.752C4.24511 121.019 3.95037 119.017 4.32506 117.087C4.69976 115.157 5.72063 113.42 7.21324 112.172C8.70584 110.924 10.5775 110.243 12.5085 110.245C14.4394 110.247 16.3097 110.932 17.7998 112.183C19.2899 113.434 20.3074 115.174 20.6782 117.104C21.049 119.035 20.7503 121.037 19.833 122.768C18.9158 124.499 17.4369 125.852 15.6492 126.595C15.2497 126.761 14.7937 126.566 14.6306 126.159C14.4676 125.752 14.6592 125.287 15.0587 125.121C16.5112 124.517 17.7128 123.418 18.4581 122.011C19.2034 120.605 19.4461 118.978 19.1448 117.41Z" fill="#D8D8D8" fill-opacity="0.25"/>
<path d="M12.5 119.796C12.9315 119.796 13.2812 120.152 13.2812 120.592V125.898C13.2812 126.338 12.9315 126.694 12.5 126.694C12.0685 126.694 11.7187 126.338 11.7187 125.898V120.592C11.7187 120.152 12.0685 119.796 12.5 119.796Z" fill="#D8D8D8" fill-opacity="0.25"/>
<path d="M21.5121 109.746C21.8172 110.057 21.8172 110.561 21.5121 110.872L20.4073 111.998C20.1022 112.308 19.6075 112.308 19.3024 111.998C18.9973 111.687 18.9973 111.183 19.3024 110.872L20.4073 109.746C20.7124 109.436 21.207 109.436 21.5121 109.746Z" fill="#D8D8D8" fill-opacity="0.25"/>
<path d="M24.2187 119.531C24.6502 119.531 25 119.174 25 118.735C25 118.295 24.6502 117.939 24.2187 117.939H22.6562C22.2248 117.939 21.875 118.295 21.875 118.735C21.875 119.174 22.2248 119.531 22.6562 119.531H24.2187Z" fill="#D8D8D8" fill-opacity="0.25"/>
<path d="M3.125 118.735C3.125 119.174 2.77522 119.531 2.34375 119.531H0.78125C0.349777 119.531 0 119.174 0 118.735C0 118.295 0.349777 117.939 0.78125 117.939H2.34375C2.77522 117.939 3.125 118.295 3.125 118.735Z" fill="#D8D8D8" fill-opacity="0.25"/>
<path d="M3.61424 110.872C3.30914 110.561 3.30914 110.057 3.61424 109.746C3.91934 109.436 4.414 109.436 4.71909 109.746L5.82395 110.872C6.12905 111.183 6.12905 111.687 5.82395 111.998C5.51885 112.308 5.02419 112.308 4.71909 111.998L3.61424 110.872Z" fill="#D8D8D8" fill-opacity="0.25"/>
<path d="M8.59375 128.551C8.59375 128.111 8.94353 127.755 9.375 127.755H15.625C16.0565 127.755 16.4062 128.111 16.4062 128.551C16.4062 128.991 16.0565 129.347 15.625 129.347H9.375C8.94353 129.347 8.59375 128.991 8.59375 128.551Z" fill="#D8D8D8" fill-opacity="0.25"/>
<path d="M10.1562 130.408C9.72478 130.408 9.375 130.765 9.375 131.204C9.375 131.644 9.72478 132 10.1562 132H14.8437C15.2752 132 15.625 131.644 15.625 131.204C15.625 130.765 15.2752 130.408 14.8437 130.408H10.1562Z" fill="#D8D8D8" fill-opacity="0.25"/>
<path d="M5.35163 68.0409H5.34563C4.86263 68.0409 4.38938 67.9966 3.93113 67.9119L3.97838 67.9194C4.83788 71.0109 7.62788 73.2429 10.9391 73.2429H10.9826H10.9804C14.9876 73.2384 18.2351 69.9909 18.2389 65.9836V65.9829C18.2295 64.4063 17.7113 62.8748 16.7614 61.6165C15.8116 60.3581 14.4808 59.44 12.9671 58.9989L12.9154 58.9861C12.9974 59.4362 13.038 59.8929 13.0369 60.3504V60.3556C13.0331 64.5991 9.59438 68.0379 5.35163 68.0416H5.35088L5.35163 68.0409ZM10.9901 57.3526C11.0795 57.2321 11.1984 57.1366 11.3355 57.0755C11.4725 57.0144 11.623 56.9897 11.7724 57.0039H11.7686C16.3849 57.4471 19.9691 61.2931 19.9946 65.9821V65.9844C19.9886 70.9606 15.9559 74.9934 10.9804 75.0001H10.9346C6.25238 75.0001 2.40938 71.4106 2.00588 66.8334L2.00363 66.7996C1.99071 66.6572 2.01287 66.5137 2.06817 66.3818C2.12347 66.2499 2.21023 66.1335 2.32088 66.0429L2.32238 66.0414C2.43406 65.9495 2.56681 65.8868 2.70872 65.8589C2.85063 65.831 2.99724 65.8388 3.13538 65.8816L3.12938 65.8801L3.52238 65.9971C4.11178 66.1904 4.72836 66.2879 5.34863 66.2859H5.35388C6.92533 66.2841 8.43192 65.659 9.5431 64.5478C10.6543 63.4367 11.2793 61.9301 11.2811 60.3586V60.3451C11.2811 59.5726 11.1326 58.8346 10.8626 58.1589L10.8769 58.1986C10.8217 58.0588 10.8034 57.9071 10.8238 57.7582C10.8442 57.6092 10.9025 57.468 10.9931 57.3481L10.9916 57.3504L10.9901 57.3526Z" fill="#D8D8D8" fill-opacity="0.25"/>
<path d="M119.276 53.7959C119.276 53.3563 118.926 53 118.495 53C118.063 53 117.713 53.3563 117.713 53.7959V55.3878C117.713 55.8273 118.063 56.1837 118.495 56.1837C118.926 56.1837 119.276 55.8273 119.276 55.3878V53.7959Z" fill="#D8D8D8" fill-opacity="0.25"/>
<path d="M125.139 64.4099C124.838 62.8413 124.011 61.428 122.801 60.4115C121.59 59.395 120.07 58.8383 118.502 58.8367C116.933 58.8351 115.412 59.3886 114.199 60.4026C112.986 61.4166 112.157 62.8282 111.852 64.3961C111.548 65.9641 111.788 67.5911 112.53 68.9991C113.272 70.4071 114.472 71.5088 115.923 72.1158C116.322 72.2828 116.513 72.7477 116.349 73.1544C116.185 73.561 115.729 73.7553 115.33 73.5884C113.544 72.8413 112.067 71.4854 111.154 69.7525C110.24 68.0195 109.945 66.017 110.32 64.0872C110.694 62.1574 111.715 60.4201 113.208 59.1721C114.7 57.9241 116.572 57.2429 118.503 57.2449C120.434 57.2469 122.304 57.932 123.794 59.1831C125.285 60.4341 126.302 62.1736 126.673 64.1042C127.044 66.0347 126.745 68.0366 125.828 69.7676C124.91 71.4987 123.432 72.8515 121.644 73.5949C121.244 73.761 120.788 73.5658 120.625 73.1588C120.462 72.7518 120.654 72.2872 121.053 72.1211C122.506 71.5171 123.707 70.4179 124.453 69.0115C125.198 67.605 125.441 65.9785 125.139 64.4099Z" fill="#D8D8D8" fill-opacity="0.25"/>
<path d="M118.495 66.7959C118.926 66.7959 119.276 67.1523 119.276 67.5918V72.898C119.276 73.3375 118.926 73.6939 118.495 73.6939C118.063 73.6939 117.713 73.3375 117.713 72.898V67.5918C117.713 67.1523 118.063 66.7959 118.495 66.7959Z" fill="#D8D8D8" fill-opacity="0.25"/>
<path d="M127.507 56.7465C127.812 57.0573 127.812 57.5612 127.507 57.8721L126.402 58.9977C126.097 59.3085 125.602 59.3085 125.297 58.9977C124.992 58.6868 124.992 58.1829 125.297 57.8721L126.402 56.7465C126.707 56.4356 127.202 56.4356 127.507 56.7465Z" fill="#D8D8D8" fill-opacity="0.25"/>
<path d="M130.213 66.5306C130.645 66.5306 130.995 66.1743 130.995 65.7347C130.995 65.2951 130.645 64.9388 130.213 64.9388H128.651C128.219 64.9388 127.87 65.2951 127.87 65.7347C127.87 66.1743 128.219 66.5306 128.651 66.5306H130.213Z" fill="#D8D8D8" fill-opacity="0.25"/>
<path d="M109.12 65.7347C109.12 66.1743 108.77 66.5306 108.338 66.5306H106.776C106.344 66.5306 105.995 66.1743 105.995 65.7347C105.995 65.2951 106.344 64.9388 106.776 64.9388H108.338C108.77 64.9388 109.12 65.2951 109.12 65.7347Z" fill="#D8D8D8" fill-opacity="0.25"/>
<path d="M109.609 57.8721C109.304 57.5612 109.304 57.0573 109.609 56.7465C109.914 56.4356 110.409 56.4356 110.714 56.7465L111.819 57.8721C112.124 58.1829 112.124 58.6868 111.819 58.9977C111.513 59.3085 111.019 59.3085 110.714 58.9977L109.609 57.8721Z" fill="#D8D8D8" fill-opacity="0.25"/>
<path d="M114.588 75.551C114.588 75.1114 114.938 74.7551 115.37 74.7551H121.62C122.051 74.7551 122.401 75.1114 122.401 75.551C122.401 75.9906 122.051 76.3469 121.62 76.3469H115.37C114.938 76.3469 114.588 75.9906 114.588 75.551Z" fill="#D8D8D8" fill-opacity="0.25"/>
<path d="M116.151 77.4082C115.719 77.4082 115.37 77.7645 115.37 78.2041C115.37 78.6437 115.719 79 116.151 79H120.838C121.27 79 121.62 78.6437 121.62 78.2041C121.62 77.7645 121.27 77.4082 120.838 77.4082H116.151Z" fill="#D8D8D8" fill-opacity="0.25"/>
<path fill-rule="evenodd" clip-rule="evenodd" d="M51.1948 74H68.7948V78H51.1948V74Z" fill="#D8D8D8" fill-opacity="0.25"/>
<path fill-rule="evenodd" clip-rule="evenodd" d="M67.1944 72H52.7944V69.334C52.7944 65.652 53.9944 60 59.9944 60C65.9944 60 67.1944 65.652 67.1944 69.334V72Z" fill="#D8D8D8" fill-opacity="0.25"/>
<path fill-rule="evenodd" clip-rule="evenodd" d="M59.1948 54H60.7948V58H59.1948V54Z" fill="#D8D8D8" fill-opacity="0.25"/>
<path fill-rule="evenodd" clip-rule="evenodd" d="M52.1499 56.8799L53.2811 55.4639L55.5435 58.2919L54.4123 59.7059L52.1499 56.8799Z" fill="#D8D8D8" fill-opacity="0.25"/>
<path fill-rule="evenodd" clip-rule="evenodd" d="M68.8107 56.2939L69.9419 57.7079L67.6795 60.5359L66.5483 59.1219L68.8107 56.2939Z" fill="#D8D8D8" fill-opacity="0.25"/>
<path fill-rule="evenodd" clip-rule="evenodd" d="M68.7944 66H71.9944V68H68.7944V66Z" fill="#D8D8D8" fill-opacity="0.25"/>
<path fill-rule="evenodd" clip-rule="evenodd" d="M47.9946 66H50.7946V68H47.9946V66Z" fill="#D8D8D8" fill-opacity="0.25"/>
<path d="M116.352 15.0409H116.346C115.863 15.0409 115.389 14.9966 114.931 14.9119L114.978 14.9194C115.838 18.0109 118.628 20.2429 121.939 20.2429H121.983H121.98C125.988 20.2384 129.235 16.9909 129.239 12.9836V12.9829C129.229 11.4063 128.711 9.87483 127.761 8.61645C126.812 7.35807 125.481 6.44001 123.967 5.99887L123.915 5.98612C123.997 6.43622 124.038 6.89287 124.037 7.35037V7.35562C124.033 11.5991 120.594 15.0379 116.352 15.0416H116.351L116.352 15.0409ZM121.99 4.35262C122.079 4.23207 122.198 4.13662 122.335 4.07552C122.473 4.01442 122.623 3.98974 122.772 4.00387H122.769C127.385 4.44712 130.969 8.29312 130.995 12.9821V12.9844C130.989 17.9606 126.956 21.9934 121.98 22.0001H121.935C117.252 22.0001 113.409 18.4106 113.006 13.8334L113.004 13.7996C112.991 13.6572 113.013 13.5137 113.068 13.3818C113.123 13.2499 113.21 13.1335 113.321 13.0429L113.322 13.0414C113.434 12.9495 113.567 12.8868 113.709 12.8589C113.851 12.831 113.997 12.8388 114.135 12.8816L114.129 12.8801L114.522 12.9971C115.112 13.1904 115.728 13.2879 116.349 13.2859H116.354C117.925 13.2841 119.432 12.659 120.543 11.5478C121.654 10.4367 122.279 8.93008 122.281 7.35862V7.34512C122.281 6.57262 122.133 5.83462 121.863 5.15887L121.877 5.19862C121.822 5.05878 121.803 4.90711 121.824 4.75817C121.844 4.60923 121.902 4.46803 121.993 4.34812L121.992 4.35037L121.99 4.35262Z" fill="#D8D8D8" fill-opacity="0.25"/>
<path d="M64.2812 0.795918C64.2812 0.356345 63.9315 0 63.5 0C63.0685 0 62.7187 0.356345 62.7187 0.795918V2.38776C62.7187 2.82733 63.0685 3.18367 63.5 3.18367C63.9315 3.18367 64.2812 2.82733 64.2812 2.38776V0.795918Z" fill="#D8D8D8" fill-opacity="0.25"/>
<path d="M70.1448 11.4099C69.8435 9.8413 69.0168 8.42799 67.8061 7.41148C66.5954 6.39496 65.0758 5.83834 63.5069 5.83671C61.938 5.83509 60.4172 6.38857 59.2045 7.40257C57.9918 8.41658 57.1623 9.82817 56.8579 11.3961C56.5534 12.9641 56.7929 14.5911 57.5354 15.9991C58.2778 17.4071 59.4772 18.5088 60.9286 19.1158C61.3277 19.2828 61.5184 19.7477 61.3546 20.1544C61.1907 20.561 60.7343 20.7553 60.3352 20.5884C58.5489 19.8413 57.0727 18.4854 56.1589 16.7525C55.2451 15.0195 54.9504 13.017 55.3251 11.0872C55.6998 9.15744 56.7206 7.4201 58.2132 6.17209C59.7058 4.92408 61.5775 4.24288 63.5085 4.24488C65.4394 4.24688 67.3097 4.93196 68.7998 6.18305C70.2899 7.43414 71.3074 9.1736 71.6782 11.1042C72.049 13.0347 71.7503 15.0366 70.833 16.7676C69.9158 18.4987 68.4369 19.8515 66.6492 20.5949C66.2497 20.761 65.7937 20.5658 65.6306 20.1588C65.4676 19.7518 65.6592 19.2872 66.0587 19.1211C67.5112 18.5171 68.7128 17.4179 69.4581 16.0115C70.2034 14.605 70.4461 12.9785 70.1448 11.4099Z" fill="#D8D8D8" fill-opacity="0.25"/>
<path d="M63.5 13.7959C63.9315 13.7959 64.2812 14.1523 64.2812 14.5918V19.898C64.2812 20.3375 63.9315 20.6939 63.5 20.6939C63.0685 20.6939 62.7187 20.3375 62.7187 19.898V14.5918C62.7187 14.1523 63.0685 13.7959 63.5 13.7959Z" fill="#D8D8D8" fill-opacity="0.25"/>
<path d="M72.5121 3.74647C72.8172 4.0573 72.8172 4.56125 72.5121 4.87207L71.4073 5.99767C71.1022 6.3085 70.6075 6.30849 70.3024 5.99767C69.9973 5.68684 69.9973 5.1829 70.3024 4.87207L71.4073 3.74647C71.7124 3.43565 72.207 3.43565 72.5121 3.74647Z" fill="#D8D8D8" fill-opacity="0.25"/>
<path d="M75.2187 13.5306C75.6502 13.5306 76 13.1743 76 12.7347C76 12.2951 75.6502 11.9388 75.2187 11.9388L73.6562 11.9388C73.2248 11.9388 72.875 12.2951 72.875 12.7347C72.875 13.1743 73.2248 13.5306 73.6562 13.5306L75.2187 13.5306Z" fill="#D8D8D8" fill-opacity="0.25"/>
<path d="M54.125 12.7347C54.125 13.1743 53.7752 13.5306 53.3437 13.5306H51.7812C51.3498 13.5306 51 13.1743 51 12.7347C51 12.2951 51.3498 11.9388 51.7812 11.9388H53.3437C53.7752 11.9388 54.125 12.2951 54.125 12.7347Z" fill="#D8D8D8" fill-opacity="0.25"/>
<path d="M54.6142 4.87207C54.3091 4.56125 54.3091 4.0573 54.6142 3.74647C54.9193 3.43565 55.414 3.43565 55.7191 3.74647L56.8239 4.87207C57.129 5.1829 57.129 5.68684 56.8239 5.99767C56.5189 6.30849 56.0242 6.3085 55.7191 5.99767L54.6142 4.87207Z" fill="#D8D8D8" fill-opacity="0.25"/>
<path d="M59.5937 22.551C59.5937 22.1114 59.9435 21.7551 60.375 21.7551H66.625C67.0565 21.7551 67.4062 22.1114 67.4062 22.551C67.4062 22.9906 67.0565 23.3469 66.625 23.3469H60.375C59.9435 23.3469 59.5937 22.9906 59.5937 22.551Z" fill="#D8D8D8" fill-opacity="0.25"/>
<path d="M61.1562 24.4082C60.7248 24.4082 60.375 24.7645 60.375 25.2041C60.375 25.6437 60.7248 26 61.1562 26H65.8437C66.2752 26 66.625 25.6437 66.625 25.2041C66.625 24.7645 66.2752 24.4082 65.8437 24.4082H61.1562Z" fill="#D8D8D8" fill-opacity="0.25"/>
<path fill-rule="evenodd" clip-rule="evenodd" d="M4.2002 21L21.8002 21V25H4.2002V21Z" fill="#D8D8D8" fill-opacity="0.25"/>
<path fill-rule="evenodd" clip-rule="evenodd" d="M20.1998 19H5.7998L5.7998 16.334C5.7998 12.652 6.9998 7 12.9998 7C18.9998 7 20.1998 12.652 20.1998 16.334V19Z" fill="#D8D8D8" fill-opacity="0.25"/>
<path fill-rule="evenodd" clip-rule="evenodd" d="M12.2002 1L13.8002 1V5H12.2002V1Z" fill="#D8D8D8" fill-opacity="0.25"/>
<path fill-rule="evenodd" clip-rule="evenodd" d="M5.15527 3.87987L6.28647 2.46387L8.54887 5.29187L7.41767 6.70587L5.15527 3.87987Z" fill="#D8D8D8" fill-opacity="0.25"/>
<path fill-rule="evenodd" clip-rule="evenodd" d="M21.8161 3.29395L22.9473 4.70795L20.6849 7.53595L19.5537 6.12194L21.8161 3.29395Z" fill="#D8D8D8" fill-opacity="0.25"/>
<path fill-rule="evenodd" clip-rule="evenodd" d="M21.7998 13H24.9998V15H21.7998V13Z" fill="#D8D8D8" fill-opacity="0.25"/>
<path fill-rule="evenodd" clip-rule="evenodd" d="M1 13H3.8V15H1L1 13Z" fill="#D8D8D8" fill-opacity="0.25"/>
</svg>
