<svg width="100" height="100" viewBox="0 0 100 100" fill="none" xmlns="http://www.w3.org/2000/svg">
<path fill-rule="evenodd" clip-rule="evenodd" d="M22.7334 99.9507C20.5032 99.8714 17.629 99.6969 16.3225 99.4333C14.3283 99.0305 12.4451 98.42 10.879 97.6217C9.03886 96.684 7.38967 95.4875 5.96564 94.0657C4.53835 92.6411 3.33707 90.9904 2.39553 89.1476C1.59953 87.5898 0.989307 85.718 0.584886 83.7352C0.3159 82.4156 0.138003 79.5199 0.0573586 77.2754C0.0246556 76.358 0.00787611 75.1707 0.00787611 74.6232L0 25.3845C0 24.8392 0.0166083 23.6516 0.0491401 22.7332C0.128415 20.5032 0.302888 17.629 0.566737 16.3225C0.969275 14.3285 1.58002 12.4451 2.37807 10.879C3.31601 9.03869 4.51232 7.38984 5.93413 5.96564C7.35868 4.53852 9.00958 3.33724 10.8522 2.39553C12.4102 1.59971 14.2819 0.989307 16.2647 0.584886C17.5843 0.3159 20.4801 0.138003 22.7246 0.0575298C23.6417 0.0246556 24.8291 0.0078761 25.3766 0.0078761L74.6153 0C75.1608 0 76.3484 0.0164371 77.2665 0.04914C79.4966 0.128586 82.3711 0.302888 83.6773 0.566737C85.6715 0.969446 87.5549 1.58019 89.1209 2.37807C90.961 3.31601 92.6102 4.51249 94.0342 5.93413C95.4613 7.35885 96.6626 9.00941 97.6043 10.8522C98.4001 12.4102 99.0107 14.2818 99.4149 16.2647C99.6841 17.5843 99.8618 20.4803 99.9425 22.7246C99.9753 23.6418 99.992 24.8291 99.992 25.3766L100 74.6153C100 75.1608 99.9834 76.3484 99.9507 77.2666C99.8712 79.4966 99.6969 82.3709 99.4331 83.6773C99.0306 85.6715 98.4198 87.5547 97.6218 89.1209C96.684 90.9611 95.4873 92.6102 94.0659 94.0344C92.6412 95.4613 90.9902 96.6628 89.1476 97.6043C87.5897 98.4003 85.718 99.0107 83.7352 99.4149C82.4156 99.6839 79.5197 99.8618 77.2754 99.9423C76.358 99.9753 75.1707 99.9919 74.6232 99.9919L25.3845 99.9998C24.839 99.9998 23.6514 99.9834 22.7334 99.9507Z" fill="#3F34BE"/>
<mask id="mask0_259_9199" style="mask-type:luminance" maskUnits="userSpaceOnUse" x="0" y="0" width="100" height="100">
<path fill-rule="evenodd" clip-rule="evenodd" d="M22.7334 99.9507C20.5032 99.8714 17.629 99.6969 16.3225 99.4333C14.3284 99.0305 12.4451 98.42 10.879 97.6217C9.03886 96.684 7.38967 95.4875 5.96564 94.0657C4.53835 92.6412 3.33707 90.9904 2.39553 89.1476C1.59953 87.5898 0.989307 85.718 0.584886 83.7352C0.3159 82.4156 0.138003 79.5199 0.0573586 77.2754C0.0246556 76.358 0.00787611 75.1707 0.00787611 74.6232L0 25.3845C0 24.8392 0.0166083 23.6516 0.0491401 22.7332C0.128415 20.5032 0.302888 17.629 0.566737 16.3225C0.969275 14.3285 1.58002 12.4451 2.37807 10.879C3.31601 9.03869 4.51232 7.38984 5.93413 5.96564C7.35868 4.53852 9.00958 3.33724 10.8522 2.39553C12.4102 1.59971 14.2819 0.989307 16.2647 0.584886C17.5843 0.3159 20.4801 0.138003 22.7246 0.0575298C23.6417 0.0246556 24.8291 0.0078761 25.3766 0.0078761L74.6153 0C75.1608 0 76.3484 0.0164371 77.2665 0.04914C79.4966 0.128586 82.371 0.302888 83.6773 0.566737C85.6715 0.969446 87.5549 1.58019 89.1209 2.37807C90.961 3.31601 92.6102 4.51249 94.0342 5.93413C95.4613 7.35885 96.6626 9.00941 97.6043 10.8522C98.4001 12.4102 99.0107 14.2818 99.4149 16.2647C99.6841 17.5843 99.8618 20.4803 99.9425 22.7246C99.9753 23.6418 99.992 24.8291 99.992 25.3766L100 74.6153C100 75.1608 99.9834 76.3484 99.9507 77.2666C99.8712 79.4966 99.6969 82.3709 99.4331 83.6773C99.0306 85.6715 98.4198 87.5547 97.6218 89.1209C96.684 90.9611 95.4873 92.6102 94.0659 94.0344C92.6412 95.4613 90.9903 96.6628 89.1476 97.6043C87.5897 98.4003 85.7181 99.0107 83.7352 99.4149C82.4156 99.6839 79.5197 99.8618 77.2754 99.9423C76.358 99.9753 75.1708 99.9919 74.6232 99.9919L25.3845 99.9998C24.839 99.9998 23.6514 99.9834 22.7334 99.9507Z" fill="white"/>
</mask>
<g mask="url(#mask0_259_9199)">
<g filter="url(#filter0_d_259_9199)">
<path d="M24.8548 51.3458C26.1258 34.5015 31.475 25.3619 41.9855 22.0805C49.1847 19.8321 58.7782 21.1918 64.2621 25.2386C70.8242 30.0797 73.854 37.3813 74.9581 51.0168C75.8379 61.8789 76.9282 64.7184 80.9556 66.6394C83.6984 67.9474 83.7419 68.0474 83.7419 73.0603C83.7419 77.8095 83.6194 78.1523 81.9274 78.1353C76.475 78.0821 68.0056 70.8208 66.1427 64.6006C65.621 62.8603 64.8524 57.2442 64.4347 52.12C63.2677 37.7934 60.0185 32.6426 51.5145 31.6353C48.4435 31.2716 46.7855 31.5571 43.921 32.9442C38.4605 35.5877 36.2879 40.5256 35.3395 52.449C34.4516 63.6152 33.6266 66.6426 30.2823 71.0055C27.4419 74.7103 23.3847 77.166 18.9024 77.8934L16 78.3644V73.1619C16 68.0805 16.0605 67.9337 18.5944 66.8063C22.754 64.9571 24.075 61.6958 24.8548 51.3458Z" fill="white"/>
<path d="M40.2516 85.2039C38.846 82.9531 37.7992 79.2031 38.4065 78.5958C38.6734 78.3289 43.9935 78.2111 50.2282 78.3337L61.5645 78.5563L61.3169 80.8724C60.7919 85.7869 55.3161 90.2498 49.8113 90.2498C46.7871 90.2498 41.7379 87.5845 40.2516 85.2039Z" fill="white"/>
</g>
<g filter="url(#filter1_d_259_9199)">
<circle cx="49.5" cy="9.5" r="6.5" fill="white"/>
</g>
</g>
<defs>
<filter id="filter0_d_259_9199" x="12" y="21" width="75.7419" height="81.2498" filterUnits="userSpaceOnUse" color-interpolation-filters="sRGB">
<feFlood flood-opacity="0" result="BackgroundImageFix"/>
<feColorMatrix in="SourceAlpha" type="matrix" values="0 0 0 0 0 0 0 0 0 0 0 0 0 0 0 0 0 0 127 0" result="hardAlpha"/>
<feOffset dy="8"/>
<feGaussianBlur stdDeviation="2"/>
<feComposite in2="hardAlpha" operator="out"/>
<feColorMatrix type="matrix" values="0 0 0 0 0.87451 0 0 0 0 0.764706 0 0 0 0 0.176471 0 0 0 0.5 0"/>
<feBlend mode="normal" in2="BackgroundImageFix" result="effect1_dropShadow_259_9199"/>
<feBlend mode="normal" in="SourceGraphic" in2="effect1_dropShadow_259_9199" result="shape"/>
</filter>
<filter id="filter1_d_259_9199" x="39" y="3" width="21" height="21" filterUnits="userSpaceOnUse" color-interpolation-filters="sRGB">
<feFlood flood-opacity="0" result="BackgroundImageFix"/>
<feColorMatrix in="SourceAlpha" type="matrix" values="0 0 0 0 0 0 0 0 0 0 0 0 0 0 0 0 0 0 127 0" result="hardAlpha"/>
<feOffset dy="4"/>
<feGaussianBlur stdDeviation="2"/>
<feComposite in2="hardAlpha" operator="out"/>
<feColorMatrix type="matrix" values="0 0 0 0 0.87451 0 0 0 0 0.764706 0 0 0 0 0.176471 0 0 0 0.5 0"/>
<feBlend mode="normal" in2="BackgroundImageFix" result="effect1_dropShadow_259_9199"/>
<feBlend mode="normal" in="SourceGraphic" in2="effect1_dropShadow_259_9199" result="shape"/>
</filter>
</defs>
</svg>
